<svg xmlns="http://www.w3.org/2000/svg" xmlns:xlink="http://www.w3.org/1999/xlink" width='100%' height='100%' viewBox='0 0 14.315 35.704' xmlns:v="https://vecta.io/nano"><style><![CDATA[.B{fill:none}.C{stroke:#696b6d}.D{stroke-width:.23}.E{stroke-linejoin:round}.F{fill:#fff}]]></style><defs><clipPath id="A"><path d="M218.837 509.928v-3.303c0-1.234 1.999-2.233 4.466-2.233h0c2.464 0 4.465.999 4.465 2.233h0v3.303c0 1.233-2.001 2.232-4.465 2.232h0c-2.467 0-4.466-.999-4.466-2.232"/></clipPath><linearGradient x1="218.888" y1="508.277" x2="227.767" y2="508.277" gradientUnits="userSpaceOnUse" spreadMethod="pad" id="B"><stop offset="0" stop-color="#fff"/><stop offset=".006" stop-color="#fff"/><stop offset=".129" stop-color="#c7c8ca"/><stop offset=".522" stop-color="#fff"/><stop offset=".663" stop-color="#fff"/><stop offset=".86" stop-color="#c7c8ca"/><stop offset="1" stop-color="#fff"/></linearGradient><clipPath id="C"><path d="M221.549 513.37c0-.438.783-.79 1.754-.79h0c.968 0 1.751.352 1.751.79h0c0 .436-.783.791-1.751.791h0c-.971 0-1.754-.355-1.754-.791"/></clipPath><linearGradient x1="222.278" y1="512.51" x2="224.404" y2="514.294" gradientUnits="userSpaceOnUse" spreadMethod="pad" id="D"><stop offset="0" stop-color="#ea6e24"/><stop offset=".034" stop-color="#ea6e24"/><stop offset=".404" stop-color="#ffd557"/><stop offset=".663" stop-color="#f57f20"/><stop offset="1" stop-color="#ea6e24"/></linearGradient><path id="E" d="M227.275 507.376c0 1.097-1.777 1.986-3.973 1.986s-3.973-.889-3.973-1.986v-2.45c0-.347.448-1.133.448-1.226 0-.973 1.578-1.762 3.525-1.762s3.525.789 3.525 1.762c0 .093.448.879.448 1.226z"/><path id="F" d="M226.399 513.297c0 .855-1.387 1.549-3.097 1.549s-3.097-.694-3.097-1.549v-.404c0-.855 1.386-1.549 3.097-1.549s3.097.694 3.097 1.549z"/><path id="G" d="M223.757 521.881c0 .126-.205.228-.455.228s-.456-.102-.456-.228v-5.717c0-.126.203-.228.456-.228s.455.102.455.228z"/></defs><g transform="matrix(1.333333 0 0 -1.333333 -291.04933 702.936)"><g fill="#939598"><path d="M228.23 502.909c0-1.374-2.226-2.485-4.972-2.485s-4.971 1.111-4.971 2.485 2.226 2.486 4.971 2.486 4.972-1.113 4.972-2.486"/><path d="M227.986 500.575c.264-.1.639.247.839.775s.146 1.037-.117 1.136c-.052.02-1.598.91-1.649.931-.264.098-.639-.249-.839-.777s-.145-1.036.119-1.135c.05-.019 1.596-.911 1.647-.93"/></g><use xlink:href="#E" class="F"/><use xlink:href="#E" class="B C D E"/><g clip-path="url(#A)"><path d="M218.837 509.928v-3.303c0-1.234 1.999-2.233 4.466-2.233h0c2.464 0 4.465.999 4.465 2.233h0v3.303c0 1.233-2.001 2.232-4.465 2.232h0c-2.467 0-4.466-.999-4.466-2.232" fill="url(#B)"/></g><path d="M227.767 509.929c0 1.233-2 2.232-4.465 2.232s-4.465-.999-4.465-2.232v-3.303c0-1.233 1.999-2.233 4.465-2.233s4.465 1 4.465 2.233z" class="B C D E"/><path d="M227.767 509.929c0-1.232-2-2.233-4.465-2.233s-4.465 1.001-4.465 2.233 1.999 2.232 4.465 2.232 4.465-.999 4.465-2.232" class="F"/><path d="M227.767 509.929c0-1.232-2-2.233-4.465-2.233s-4.465 1.001-4.465 2.233 1.999 2.232 4.465 2.232 4.465-.999 4.465-2.232z" class="B C D E"/><path d="M219.594 510.4c0-1.024 1.66-1.854 3.708-1.854s3.71.83 3.71 1.854c0 .646-1.182 2.009-1.182 2.287 0 .697-1.132 1.263-2.528 1.263s-2.528-.566-2.528-1.263c0-.278-1.18-1.641-1.18-2.287" class="F"/><path d="M219.594 510.4c0-1.024 1.66-1.854 3.708-1.854s3.71.83 3.71 1.854c0 .646-1.182 2.009-1.182 2.287 0 .697-1.132 1.263-2.528 1.263s-2.528-.566-2.528-1.263c0-.278-1.18-1.641-1.18-2.287z" class="B C D E"/><path d="M228.023 510.597c.251.133.332.604.182 1.052s-.47.702-.72.569c-.049-.027-1.685-.631-1.735-.657-.25-.133-.333-.604-.183-1.052s.469-.702.72-.569c.049.027 1.687.631 1.736.657" class="F"/><path d="M228.023 510.597c.251.133.332.604.182 1.052s-.47.702-.72.569c-.049-.027-1.685-.631-1.735-.657-.25-.133-.333-.604-.183-1.052s.469-.702.72-.569c.049.027 1.687.631 1.736.657z" class="B C D E"/><path d="M228.023 510.597c-.25-.135-.573.12-.722.568s-.065.919.184 1.053.573-.122.72-.569.069-.919-.182-1.052" class="F"/><g class="B C D E"><path d="M228.023 510.597c-.25-.135-.573.12-.722.568s-.065.919.184 1.053.573-.122.72-.569.069-.919-.182-1.052z"/><path d="M227.874 511.046c-.112-.059-.256.054-.321.254s-.029.409.082.469.255-.055.321-.254.03-.409-.082-.469z"/></g><use xlink:href="#F" class="F"/><use xlink:href="#F" class="B C D E"/><path d="M226.399 513.297c0-.856-1.387-1.549-3.097-1.549s-3.097.693-3.097 1.549 1.386 1.549 3.097 1.549 3.097-.694 3.097-1.549" class="F"/><path d="M226.399 513.297c0-.856-1.387-1.549-3.097-1.549s-3.097.693-3.097 1.549 1.386 1.549 3.097 1.549 3.097-.694 3.097-1.549z" class="B C D E"/><g clip-path="url(#C)"><path d="M221.549 513.37c0-.438.783-.79 1.754-.79h0c.968 0 1.751.352 1.751.79h0c0 .436-.783.791-1.751.791h0c-.971 0-1.754-.355-1.754-.791" fill="url(#D)"/></g><path d="M225.054 513.37c0-.437-.784-.791-1.752-.791s-1.753.354-1.753.791.784.791 1.753.791 1.752-.354 1.752-.791z" class="B C D E"/><path d="M223.302 513.673c.78 0 1.438-.229 1.667-.547a.41.41 0 0 1 .085.243c0 .437-.784.792-1.752.792s-1.753-.355-1.753-.792c0-.084.03-.166.086-.243.227.318.887.547 1.667.547" class="F"/><g class="B C D E"><path d="M223.302 513.673c.78 0 1.438-.229 1.667-.547a.41.41 0 0 1 .085.243c0 .437-.784.792-1.752.792s-1.753-.355-1.753-.792c0-.084.03-.166.086-.243.227.318.887.547 1.667.547z"/><path d="M223.302 519.952v-6.809" stroke-dasharray="0.598, 0.598"/></g><use xlink:href="#G" class="F"/><use xlink:href="#G" class="B C D E"/><path d="M223.757 521.881c0-.126-.205-.227-.455-.227s-.456.101-.456.227.203.228.456.228.455-.102.455-.228" class="F"/><g class="B C D E"><path d="M223.757 521.881c0-.126-.205-.227-.455-.227s-.456.101-.456.227.203.228.456.228.455-.102.455-.228z"/><path d="M223.302 527.202v-5.393" stroke-dasharray="0.6, 0.6"/></g></g></svg>