<svg xmlns="http://www.w3.org/2000/svg" xmlns:xlink="http://www.w3.org/1999/xlink" width='100%' height='100%' viewBox='0 0 23.829 35.448' xmlns:v="https://vecta.io/nano"><style><![CDATA[.B{fill:none}.C{stroke:#696b6d}.D{fill:#fff}.E{stroke-width:.253}.F{stroke-width:.126}.G{fill:#939598}]]></style><defs><clipPath id="A"><path d="M271.751 559.057c0-.234-.996-8.216-.996-8.763h0c0-.864 1.401-1.563 3.129-1.563h0c1.728 0 3.13.699 3.13 1.563h0c0 .547-.997 8.529-.997 8.763h0c0 .59-.955 1.068-2.133 1.068h0c-1.178 0-2.133-.478-2.133-1.068"/></clipPath><linearGradient x1="271.564" y1="554.428" x2="277.014" y2="554.428" gradientUnits="userSpaceOnUse" spreadMethod="pad" id="B"><stop offset="0" stop-color="#c7c8ca"/><stop offset=".129" stop-color="#c7c8ca"/><stop offset=".522" stop-color="#fff"/><stop offset=".663" stop-color="#fff"/><stop offset=".86" stop-color="#c7c8ca"/><stop offset="1" stop-color="#fff"/></linearGradient><clipPath id="C"><path d="M271.859 562.356v-1.498c0-.559.908-1.01 2.025-1.01h0c1.119 0 2.025.451 2.025 1.01h0v1.498c0 .56-.906 1.013-2.025 1.013h0c-1.117 0-2.025-.453-2.025-1.013"/></clipPath><linearGradient x1="271.884" y1="561.608" x2="275.909" y2="561.608" gradientUnits="userSpaceOnUse" spreadMethod="pad" id="D"><stop offset="0" stop-color="#fff"/><stop offset=".006" stop-color="#fff"/><stop offset=".129" stop-color="#c7c8ca"/><stop offset=".522" stop-color="#fff"/><stop offset=".663" stop-color="#fff"/><stop offset=".859" stop-color="#c7c8ca"/><stop offset="1" stop-color="#fff"/></linearGradient><clipPath id="E"><path d="M278.783 546.156c0-.292.522-.527 1.166-.527h0c.644 0 1.166.235 1.166.527h0c0 .291-.522.526-1.166.526h0c-.644 0-1.166-.235-1.166-.526"/></clipPath><linearGradient x1="279.266" y1="545.582" x2="280.68" y2="546.769" gradientUnits="userSpaceOnUse" spreadMethod="pad" id="F"><stop offset="0" stop-color="#ea6e24"/><stop offset=".034" stop-color="#ea6e24"/><stop offset=".404" stop-color="#ffd557"/><stop offset=".663" stop-color="#f57f20"/><stop offset="1" stop-color="#ea6e24"/></linearGradient><path id="G" d="M276.671 551.498c0 .77-1.248 1.394-2.787 1.394s-2.788-.624-2.788-1.394v-1.719c0-.242.316-.794.316-.86 0-.682 1.107-1.235 2.472-1.235s2.472.553 2.472 1.235c0 .066.315.618.315.86z"/><path id="H" d="M276.213 559.334c0 .643-1.043 1.165-2.328 1.165s-2.328-.522-2.328-1.165v-.717c0-.644 1.043-1.165 2.328-1.165s2.328.521 2.328 1.165z"/><path id="I" d="M275.686 561.199c0 .497-.806.901-1.801.901s-1.801-.404-1.801-.901v-1.11c0-.158.202-.515.202-.556 0-.441.716-.799 1.599-.799s1.597.358 1.597.799c0 .041.204.398.204.556z"/><path id="J" d="M271.36 559.81l-6.065-12.974-.137-2.459 6.964 14.872z"/><path id="K" d="M271.427 559.359l-.345-.757.731.538zm-.039-1.182l.263.543.005.009-.556-.36zm-.884-.796l.731.54-.386.217zm.305-.424l.263.544.004.007-.555-.359zm-.933-.854l.73.54-.385.218zm.305-.423l.262.543.005.007-.556-.359zm-.888-.858l.73.54-.385.217zm.305-.423l.262.541.005.01-.556-.361zm-.885-.798l.73.54-.385.217zm.306-.424l.262.543.004.008-.556-.36zm-.933-.853l.729.54-.385.216zm.305-.424l.263.543.003.008-.554-.361zm-.862-.842l.729.54-.385.217zm.305-.424l.263.543.004.008-.556-.36zm-.884-.797l.729.54-.385.217zm.303-.424l.265.543.004.009-.556-.36zm-.931-.854l.729.54-.385.217zm.304-.424l.263.543.004.009-.554-.36zm-.838-.737l.73.54-.386.216zm.305-.424l.263.542.005.009-.557-.36zm-.633-1.439l.498 1.191-.374.259z"/><path id="L" d="M273.146 558.326l-.345-.757.731.54zm-.039-1.181l.262.543.006.009-.556-.36zm-.883-.797l.729.541-.386.216zm.304-.423l.263.543.003.008-.554-.36zm-.934-.854l.731.54-.386.217zm.306-.423l.262.542.004.008-.555-.359zm-.889-.859l.73.54-.386.218zm.306-.423l.262.543.005.008-.555-.361zm-.886-.797l.73.541-.385.216zm.307-.424l.262.543.004.008-.555-.36zm-.934-.854l.73.54-.385.218zm.304-.424l.264.543.005.009-.556-.361zm-.86-.842l.729.54-.385.217zm.304-.423l.264.542.003.009-.555-.36zm-.884-.797l.73.539-.385.217zm.304-.424l.265.542.002.01-.554-.361zm-.932-.854l.73.539-.385.217zm.305-.425l.263.543.005.009-.556-.36zm-.839-.737l.731.54-.386.217zm.304-.424l.265.544.004.008-.556-.361zm-.632-1.439l.499 1.191-.376.261z"/><path id="M" d="M281.501 545.712c0 .429-.695.776-1.552.776s-1.551-.347-1.551-.776v-1.72c0-.427.694-.775 1.551-.775s1.552.348 1.552.775z"/><path id="N" d="M281.346 546.123c0 .386-.626.698-1.397.698s-1.397-.312-1.397-.698v-.183c0-.384.625-.697 1.397-.697s1.397.313 1.397.697z"/></defs><g transform="matrix(1.333333 0 0 -1.333333 -352.87867 758.21867)"><path d="M279.319 561.472c-.017.006-2.253 1.154-2.423 1.24-.183.103-.365.026-.4.013-.018-.006-2.38-1.221-2.397-1.227-.086-.033-.104-.2-.038-.373s.187-.288.275-.255c.014.005 1.744.897 2.348 1.206l2.398-1.232c.086-.033.209.081.275.255s.049.34-.038.373" class="D"/><path d="M279.319 561.472c-.017.006-2.253 1.154-2.423 1.24-.183.103-.365.026-.4.013-.018-.006-2.38-1.221-2.397-1.227-.086-.033-.104-.2-.038-.373s.187-.288.275-.255c.014.005 1.744.897 2.348 1.206l2.398-1.232c.086-.033.209.081.275.255s.049.34-.038.373z" class="B C E"/><path d="M279.081 560.844c-.087.033-.103.2-.038.373s.188.287.275.255.105-.2.038-.373-.188-.288-.275-.255" class="D"/><path d="M279.081 560.844c-.087.033-.103.2-.038.373s.188.287.275.255.105-.2.038-.373-.188-.288-.275-.255zm.067.174c-.04.014-.047.089-.018.166s.085.128.122.114.047-.089.018-.165-.083-.129-.122-.115z" class="B C E"/><path d="M279.43 548.339l-5.772 2.886-5.772-2.886v-1.128l5.772-2.885 5.772 2.885z" class="D"/><path d="M279.43 548.339l-5.772 2.886-5.772-2.886v-1.128l5.772-2.885 5.772 2.885z" class="B C E"/><path d="M279.427 548.339l-5.772-2.887-5.772 2.887 5.772 2.886z" class="D"/><path d="M279.43 548.339l-5.772-2.887-5.772 2.887 5.772 2.886z" class="B C E"/><path d="M277.529 548.576c0-1.006-1.632-1.823-3.645-1.823s-3.645.817-3.645 1.823 1.632 1.823 3.645 1.823 3.645-.815 3.645-1.823" class="G"/><use xlink:href="#G" class="D"/><use xlink:href="#G" class="B C E"/><g clip-path="url(#A)"><path d="M271.751 559.057c0-.234-.996-8.216-.996-8.763h0c0-.864 1.401-1.563 3.129-1.563h0c1.728 0 3.13.699 3.13 1.563h0c0 .547-.997 8.529-.997 8.763h0c0 .59-.955 1.068-2.133 1.068h0c-1.178 0-2.133-.478-2.133-1.068" fill="url(#B)"/></g><path d="M270.755 550.295c0-.864 1.4-1.564 3.13-1.564s3.129.7 3.129 1.564c0 .545-.997 8.528-.997 8.762 0 .59-.955 1.067-2.132 1.067s-2.133-.477-2.133-1.067c0-.234-.997-8.217-.997-8.762z" class="B C E"/><use xlink:href="#H" class="D"/><use xlink:href="#H" class="B C E"/><path d="M275.764 559.265c0-.519-.841-.94-1.88-.94s-1.879.421-1.879.94.842.94 1.879.94 1.88-.421 1.88-.94" class="D"/><path d="M275.764 559.265c0-.519-.841-.94-1.88-.94s-1.879.421-1.879.94.842.94 1.879.94 1.88-.421 1.88-.94z" class="B C E"/><use xlink:href="#I" class="D"/><use xlink:href="#I" class="B C E"/><g clip-path="url(#C)"><path d="M271.859 562.356v-1.498c0-.559.908-1.01 2.025-1.01h0c1.119 0 2.025.451 2.025 1.01h0v1.498c0 .56-.906 1.013-2.025 1.013h0c-1.117 0-2.025-.453-2.025-1.013" fill="url(#D)"/></g><path d="M275.909 562.356c0 .559-.906 1.012-2.024 1.012s-2.024-.453-2.024-1.012v-1.498c0-.559.906-1.011 2.024-1.011s2.024.452 2.024 1.011z" class="B C E"/><path d="M275.909 562.356c0-.559-.906-1.012-2.024-1.012s-2.024.453-2.024 1.012.906 1.012 2.024 1.012 2.024-.453 2.024-1.012" class="D"/><path d="M275.909 562.356c0-.559-.906-1.012-2.024-1.012s-2.024.453-2.024 1.012.906 1.012 2.024 1.012 2.024-.453 2.024-1.012z" class="B C E"/><path d="M272.329 562.565c0-.43.697-.778 1.556-.778s1.555.348 1.555.778c0 .271-.496 2.47-.496 2.586 0 .294-.475.529-1.059.529s-1.06-.235-1.06-.529c0-.116-.496-2.315-.496-2.586" class="D"/><path d="M272.329 562.565c0-.43.697-.778 1.556-.778s1.555.348 1.555.778c0 .271-.496 2.47-.496 2.586 0 .294-.475.529-1.059.529s-1.06-.235-1.06-.529c0-.116-.496-2.315-.496-2.586z" class="B C E"/><path d="M271.294 545.53l-4.416-2.184-1.755 1.045 4.18 2.133z" class="G"/><path d="M273.766 558.262l-6.963-14.872-1.644.987 6.963 14.871z" class="D"/><path d="M273.766 558.262l-6.963-14.872-1.644.987 6.963 14.871z" class="B C E"/><use xlink:href="#J" class="D"/><use xlink:href="#J" class="B C F"/><use xlink:href="#K" class="D"/><use xlink:href="#K" class="B C F"/><use xlink:href="#J" x="1.719" y="-1.032" class="D"/><use xlink:href="#J" x="1.719" y="-1.032" class="B C F"/><use xlink:href="#L" class="D"/><use xlink:href="#L" class="B C F"/><path d="M272.469 559.086l-.1 1.06.851-.263.018-1.115z" fill="#696b6d"/><path d="M272.469 559.086l-.1 1.06.851-.263.018-1.115z" class="B C E"/><path d="M276.511 566.857c-.016.006-2.317 1.193-2.334 1.199-.351.146-.586.004-.582-.494v-2.113c0-.087.142-.157.314-.157s.317.07.317.157v1.835l2.049-1.055c.085-.031.209.083.275.255s.048.342-.039.373" class="D"/><path d="M276.511 566.857c-.016.006-2.317 1.193-2.334 1.199-.351.146-.586.004-.582-.494v-2.113c0-.087.142-.157.314-.157s.317.07.317.157v1.835l2.049-1.055c.085-.031.209.083.275.255s.048.342-.039.373z" class="B C E"/><path d="M276.274 566.23c-.087.034-.103.2-.039.373s.189.288.276.255.104-.2.038-.373-.189-.288-.275-.255" class="D"/><path d="M276.274 566.23c-.087.034-.103.2-.039.373s.189.288.276.255.104-.2.038-.373-.189-.288-.275-.255zm.066.174c-.039.015-.046.089-.017.166s.084.129.122.114.047-.089.017-.167-.082-.127-.122-.113z" class="B C E"/><g class="G"><path d="M273.025 547.479l-1.723-.858-2.041 1.009 1.774.844z"/><path d="M271.304 545.496l-2.019 1.01v1.124l2.019-1.011z"/></g><path d="M279.844 550.172l-3.937 2.02c-.146.055-.357-.138-.467-.432s-.083-.578.065-.633c.023-.008 2.731-1.404 3.865-1.986v-1.09c0-.142.231-.257.517-.257s.514.115.514.257v1.2c0 .361-.205.731-.557.921" class="D"/><path d="M279.844 550.172l-3.937 2.02c-.146.055-.357-.138-.467-.432s-.083-.578.065-.633c.023-.008 2.731-1.404 3.865-1.986v-1.09c0-.142.231-.257.517-.257s.514.115.514.257v1.2c0 .361-.205.731-.557.921z" class="B C E"/><path d="M281.056 545.358c-.073-.027-.177.069-.231.215s-.042.285.032.314c.014.005.876.437.89.443.072.027.177-.069.231-.214s.041-.287-.033-.314c-.014-.006-.876-.438-.889-.444" class="D"/><path d="M281.056 545.358c-.073-.027-.177.069-.231.215s-.042.285.032.314c.014.005.876.437.89.443.072.027.177-.069.231-.214s.041-.287-.033-.314c-.014-.006-.876-.438-.889-.444z" class="B C E"/><path d="M281.056 545.358c.073.029.087.169.032.314s-.158.242-.231.215-.087-.167-.032-.314.158-.242.231-.215" class="D"/><path d="M281.056 545.358c.073.029.087.169.032.314s-.158.242-.231.215-.087-.167-.032-.314.158-.242.231-.215z" class="B C E"/><path d="M278.335 544.008c0 .502.722.909 1.614.909s1.615-.407 1.615-.909c0-.846-.724-1.43-1.615-1.43s-1.614.637-1.614 1.43" class="D"/><path d="M278.335 544.008c0 .502.722.909 1.614.909s1.615-.407 1.615-.909c0-.846-.724-1.43-1.615-1.43s-1.614.637-1.614 1.43z" class="B C E"/><use xlink:href="#M" class="D"/><use xlink:href="#M" class="B C E"/><path d="M281.501 545.712c0-.428-.695-.775-1.552-.775s-1.551.347-1.551.775.694.776 1.551.776 1.552-.347 1.552-.776" class="D"/><path d="M281.501 545.712c0-.428-.695-.775-1.552-.775s-1.551.347-1.551.775.694.776 1.551.776 1.552-.347 1.552-.776z" class="B C E"/><use xlink:href="#N" class="D"/><use xlink:href="#N" class="B C E"/><path d="M281.346 546.123c0-.386-.626-.698-1.397-.698s-1.397.312-1.397.698.625.698 1.397.698 1.397-.312 1.397-.698" class="D"/><path d="M281.346 546.123c0-.386-.626-.698-1.397-.698s-1.397.312-1.397.698.625.698 1.397.698 1.397-.312 1.397-.698z" class="B C E"/><g clip-path="url(#E)"><path d="M278.783 546.156c0-.292.522-.527 1.166-.527h0c.644 0 1.166.235 1.166.527h0c0 .291-.522.526-1.166.526h0c-.644 0-1.166-.235-1.166-.526" fill="url(#F)"/></g><path d="M281.115 546.156c0-.291-.523-.527-1.166-.527s-1.167.236-1.167.527.523.527 1.167.527 1.166-.237 1.166-.527z" class="B C E"/><path d="M279.949 546.357c.519 0 .957-.152 1.109-.364.037.051.056.106.056.162 0 .291-.522.527-1.165.527s-1.166-.236-1.166-.527c0-.056.02-.111.056-.162.152.212.591.364 1.11.364" class="D"/><path d="M279.949 546.357c.519 0 .957-.152 1.109-.364.037.051.056.106.056.162 0 .291-.522.527-1.165.527s-1.166-.236-1.166-.527c0-.056.02-.111.056-.162.152.212.591.364 1.11.364z" class="B C E"/><path d="M277.891 543.807c-.073-.028-.178.067-.231.214s-.042.288.032.314c.014.005.875.438.89.443.072.027.177-.069.231-.215s.041-.285-.033-.314c-.014-.005-.874-.437-.889-.442" class="D"/><path d="M277.891 543.807c-.073-.028-.178.067-.231.214s-.042.288.032.314c.014.005.875.438.89.443.072.027.177-.069.231-.215s.041-.285-.033-.314c-.014-.005-.874-.437-.889-.442z" class="B C E"/><path d="M277.891 543.807c.073.028.087.168.032.313s-.158.243-.231.215-.088-.168-.032-.314.158-.242.231-.214" class="D"/><path d="M277.891 543.807c.073.028.087.168.032.313s-.158.243-.231.215-.088-.168-.032-.314.158-.242.231-.214z" class="B C E"/></g></svg>