<svg xmlns="http://www.w3.org/2000/svg" width='100%' height='100%' viewBox='0 0 31.077 25.707' xmlns:v="https://vecta.io/nano"><style><![CDATA[.B{fill:none}.C{stroke:#696b6d}.D{stroke-width:.23}.E{fill:#fff}.F{stroke-linejoin:round}]]></style><defs><clipPath id="A"><path d="M112.99 690.946c0-.641 1.171-4.637 1.171-4.91h0c0-.695 1.125-1.818 2.514-2.513h0c1.386-.695 2.511-.695 2.511 0h0c0 .275 1.174 3.094 1.174 3.738h0c0 1.018-1.651 2.666-3.685 3.684h0c-1.02.511-1.94.764-2.607.764h0c-.666 0-1.078-.253-1.078-.763"/></clipPath><linearGradient x1="113.942" y1="687.269" x2="120.36" y2="687.269" gradientUnits="userSpaceOnUse" spreadMethod="pad" id="B"><stop offset="0" stop-color="#c7c8ca"/><stop offset=".128" stop-color="#c7c8ca"/><stop offset=".522" stop-color="#fff"/><stop offset=".663" stop-color="#fff"/><stop offset=".86" stop-color="#c7c8ca"/><stop offset="1" stop-color="#fff"/></linearGradient><clipPath id="C"><path d="M107.468 680.73l-1.026-4 13.029 6.634 1.129 3.933z"/></clipPath><linearGradient x1="108.278" y1="682.013" x2="120.605" y2="682.013" gradientUnits="userSpaceOnUse" spreadMethod="pad" id="D"><stop offset="0" stop-color="#c7c8ca"/><stop offset=".128" stop-color="#c7c8ca"/><stop offset=".522" stop-color="#fff"/><stop offset=".663" stop-color="#fff"/><stop offset=".86" stop-color="#c7c8ca"/><stop offset="1" stop-color="#fff"/></linearGradient><clipPath id="E"><path d="M99.582 684.106c0-.641 1.177-4.637 1.177-4.911h0c0-.693 1.123-1.818 2.51-2.511h0c1.388-.693 2.512-.693 2.512 0h0c0 .274 1.172 3.093 1.172 3.737h0c0 1.018-1.648 2.667-3.684 3.685h0c-1.017.51-1.941.763-2.608.763h0c-.666 0-1.079-.252-1.079-.763"/></clipPath><linearGradient x1="100.533" y1="680.43" x2="106.955" y2="680.43" gradientUnits="userSpaceOnUse" spreadMethod="pad" id="F"><stop offset="0" stop-color="#c7c8ca"/><stop offset=".128" stop-color="#c7c8ca"/><stop offset=".522" stop-color="#fff"/><stop offset=".663" stop-color="#fff"/><stop offset=".86" stop-color="#c7c8ca"/><stop offset="1" stop-color="#fff"/></linearGradient></defs><g transform="matrix(1.333333 0 0 -1.333333 -131.528 923.888)"><path d="M121.378 679.318c0-3.138-5.088-5.682-11.366-5.682s-11.366 2.544-11.366 5.682 5.088 5.683 11.366 5.683 11.366-2.544 11.366-5.683" fill="#939598"/><path d="M118.003 678.903c.426-.132.984.453 1.249 1.305s.132 1.65-.296 1.782c-.082.025-1.738.85-1.822.875-.425.132-.985-.453-1.248-1.306s-.133-1.648.294-1.781c.083-.024 1.74-.849 1.823-.875" class="E"/><path d="M118.003 678.903c.426-.132.984.453 1.249 1.305s.132 1.65-.296 1.782c-.082.025-1.738.85-1.822.875-.425.132-.985-.453-1.248-1.306s-.133-1.648.294-1.781c.083-.024 1.74-.849 1.823-.875z" class="B C D"/><path d="M118.003 678.903c-.426.132-.558.929-.294 1.782s.821 1.436 1.247 1.305.559-.93.296-1.782-.823-1.437-1.249-1.305" class="E"/><path d="M118.003 678.903c-.426.132-.558.929-.294 1.782s.821 1.436 1.247 1.305.559-.93.296-1.782-.823-1.437-1.249-1.305z" class="B C D"/><path d="M118.138 679.34c-.305.095-.4.666-.211 1.277s.588 1.028.895.934.399-.666.211-1.276-.59-1.03-.895-.935" class="E"/><path d="M118.138 679.34c-.305.095-.4.666-.211 1.277s.588 1.028.895.934.399-.666.211-1.276-.59-1.03-.895-.935z" class="B C D"/><path d="M115.267 677.535c.426-.132.985.452 1.25 1.305s.131 1.649-.297 1.781c-.081.026-1.738.851-1.821.875-.426.133-.986-.451-1.249-1.304s-.132-1.649.294-1.782c.083-.024 1.74-.849 1.823-.875" class="E"/><path d="M115.267 677.535c.426-.132.985.452 1.25 1.305s.131 1.649-.297 1.781c-.081.026-1.738.851-1.821.875-.426.133-.986-.451-1.249-1.304s-.132-1.649.294-1.782c.083-.024 1.74-.849 1.823-.875z" class="B C D"/><path d="M115.267 677.535c-.426.133-.557.929-.294 1.782s.822 1.436 1.247 1.304.559-.929.297-1.781-.824-1.437-1.25-1.305" class="E"/><path d="M115.267 677.535c-.426.133-.557.929-.294 1.782s.822 1.436 1.247 1.304.559-.929.297-1.781-.824-1.437-1.25-1.305z" class="B C D"/><path d="M115.402 677.973c-.305.094-.399.666-.21 1.277s.588 1.028.893.933.401-.665.212-1.275-.59-1.03-.895-.935" class="E"/><path d="M115.402 677.973c-.305.094-.399.666-.21 1.277s.588 1.028.893.933.401-.665.212-1.275-.59-1.03-.895-.935z" class="B C D"/><path d="M112.532 676.168c.426-.133.984.452 1.249 1.304s.13 1.65-.296 1.781c-.083.027-1.74.85-1.824.876-.423.132-.985-.452-1.248-1.305s-.13-1.65.294-1.781c.084-.026 1.742-.851 1.825-.875" class="E"/><path d="M112.532 676.168c.426-.133.984.452 1.249 1.304s.13 1.65-.296 1.781c-.083.027-1.74.85-1.824.876-.423.132-.985-.452-1.248-1.305s-.13-1.65.294-1.781c.084-.026 1.742-.851 1.825-.875z" class="B C D"/><path d="M112.532 676.168c-.428.132-.559.928-.295 1.781s.823 1.437 1.248 1.304.559-.929.296-1.781-.823-1.437-1.249-1.304" class="E"/><path d="M112.532 676.168c-.428.132-.559.928-.295 1.781s.823 1.437 1.248 1.304.559-.929.296-1.781-.823-1.437-1.249-1.304z" class="B C D"/><path d="M112.667 676.605c-.305.095-.4.666-.211 1.276s.588 1.029.894.934.4-.665.211-1.274-.59-1.03-.894-.936" class="E"/><path d="M112.667 676.605c-.305.095-.4.666-.211 1.276s.588 1.029.894.934.4-.665.211-1.274-.59-1.03-.894-.936z" class="B C D"/><path d="M109.796 674.8c.426-.132.984.452 1.25 1.304s.13 1.65-.297 1.781c-.081.026-1.739.851-1.822.876-.425.132-.985-.451-1.25-1.304s-.131-1.65.295-1.782c.083-.025 1.741-.85 1.824-.875" class="E"/><path d="M109.796 674.8c.426-.132.984.452 1.25 1.304s.13 1.65-.297 1.781c-.081.026-1.739.851-1.822.876-.425.132-.985-.451-1.25-1.304s-.131-1.65.295-1.782c.083-.025 1.741-.85 1.824-.875z" class="B C D"/><path d="M109.796 674.8c-.427.132-.558.929-.294 1.781s.821 1.437 1.247 1.304.559-.928.297-1.781-.824-1.436-1.25-1.304" class="E"/><path d="M109.796 674.8c-.427.132-.558.929-.294 1.781s.821 1.437 1.247 1.304.559-.928.297-1.781-.824-1.436-1.25-1.304z" class="B C D"/><path d="M109.931 675.237c-.307.094-.4.665-.212 1.276s.589 1.029.895.934.4-.665.211-1.274-.59-1.03-.894-.936" class="E"/><path d="M109.931 675.237c-.307.094-.4.665-.212 1.276s.589 1.029.895.934.4-.665.211-1.274-.59-1.03-.894-.936z" class="B C D"/><path d="M117.768 691.494c-1.438.719-2.683.929-3.29.632l-1.18-.594c-.199-.127-.309-.322-.309-.585 0-.642 1.173-4.638 1.173-4.911 0-.695 1.124-1.819 2.512-2.513.951-.476 1.781-.626 2.207-.447a19.56 19.56 0 0 1 1.168.584c.148.086.23.222.23.41 0 .275 1.175 3.095 1.175 3.737 0 1.018-1.65 2.668-3.686 3.687" class="E"/><path d="M117.768 691.494c-1.438.719-2.683.929-3.29.632l-1.18-.594c-.199-.127-.309-.322-.309-.585 0-.642 1.173-4.638 1.173-4.911 0-.695 1.124-1.819 2.512-2.513.951-.476 1.781-.626 2.207-.447a19.56 19.56 0 0 1 1.168.584c.148.086.23.222.23.41 0 .275 1.175 3.095 1.175 3.737 0 1.018-1.65 2.668-3.686 3.687z" class="B C D F"/><g clip-path="url(#A)"><path d="M112.99 690.946c0-.641 1.171-4.637 1.171-4.91h0c0-.695 1.125-1.818 2.514-2.513h0c1.386-.695 2.511-.695 2.511 0h0c0 .275 1.174 3.094 1.174 3.738h0c0 1.018-1.651 2.666-3.685 3.684h0c-1.02.511-1.94.764-2.607.764h0c-.666 0-1.078-.253-1.078-.763" fill="url(#B)"/></g><path d="M120.36 687.26c0 1.018-1.65 2.668-3.686 3.686s-3.685 1.018-3.685.001c0-.642 1.174-4.638 1.174-4.912 0-.694 1.124-1.818 2.511-2.513s2.513-.693 2.513 0c0 .276 1.173 3.096 1.173 3.738z" class="B C D F"/><g clip-path="url(#C)"><path d="M107.468 680.73l-1.026-4 13.029 6.634 1.129 3.933z" fill="url(#D)"/></g><path d="M107.467 680.731l13.133 6.565-1.13-3.932-13.027-6.634z" class="B C D F"/><path d="M117.768 691.494c-1.438.719-2.683.929-3.29.632l-1.126-.561c.597.318 1.858.112 3.322-.619 2.035-1.017 3.685-2.668 3.685-3.686 0-.642-1.173-3.462-1.173-3.737 0-.217-.11-.365-.303-.447.198.084.978.473 1.166.584.148.086.23.222.23.41 0 .275 1.175 3.095 1.175 3.737 0 1.018-1.65 2.668-3.686 3.687m-4.475.034l.056.035-.051-.031m5.583-8.456h.001c-.035-.015-.072-.027-.111-.036.039.009.076.021.11.036" class="E"/><path d="M117.768 691.494c-1.438.719-2.683.929-3.29.632l-1.126-.561c.597.318 1.858.112 3.322-.619 2.035-1.017 3.685-2.668 3.685-3.686 0-.642-1.173-3.462-1.173-3.737 0-.217-.11-.365-.303-.447.198.084.978.473 1.166.584.148.086.23.222.23.41 0 .275 1.175 3.095 1.175 3.737 0 1.018-1.65 2.668-3.686 3.687zm-4.475.034l.056.035-.051-.031zm5.588-8.452h.001c-.035-.015-.072-.027-.111-.036.039.009.076.021.11.036z" class="B C D F"/><path d="M120.33 687.136l-12.258-6.13-7.408 3.705 12.258 6.128z" class="E"/><path d="M120.33 687.136l-12.258-6.13-7.408 3.705 12.258 6.128z" class="B C D F"/><path d="M118.323 686.888l-9.754-4.876-5.893 2.947 9.752 4.877z" class="E"/><g class="B C D F"><path d="M118.323 686.888l-9.754-4.876-5.893 2.947 9.752 4.877z"/><path d="M112.427 689.835v-5.093"/></g><path d="M118.323 686.888l-9.754-4.876-5.893 2.947.96 2.888 1.653.327 1.558 1.788 2.115 1.212 2.424-.173 1.96.384.963-1.033 1.516.053 1.231-1.039z"/><path d="M104.364 684.654c-1.439.719-2.684.93-3.29.634l-1.18-.596a.65.65 0 0 1-.311-.585c0-.642 1.175-4.637 1.175-4.912 0-.693 1.124-1.818 2.512-2.511.951-.477 1.781-.625 2.206-.447a19.61 19.61 0 0 1 1.17.584c.148.085.23.222.23.409 0 .276 1.174 3.096 1.174 3.737 0 1.019-1.65 2.668-3.686 3.687" class="E"/><path d="M104.364 684.654c-1.439.719-2.684.93-3.29.634l-1.18-.596a.65.65 0 0 1-.311-.585c0-.642 1.175-4.637 1.175-4.912 0-.693 1.124-1.818 2.512-2.511.951-.477 1.781-.625 2.206-.447a19.61 19.61 0 0 1 1.17.584c.148.085.23.222.23.409 0 .276 1.174 3.096 1.174 3.737 0 1.019-1.65 2.668-3.686 3.687z" class="B C D F"/><g clip-path="url(#E)"><path d="M99.582 684.106c0-.641 1.177-4.637 1.177-4.911h0c0-.693 1.123-1.818 2.51-2.511h0c1.388-.693 2.512-.693 2.512 0h0c0 .274 1.172 3.093 1.172 3.737h0c0 1.018-1.648 2.667-3.684 3.685h0c-1.017.51-1.941.763-2.608.763h0c-.666 0-1.079-.252-1.079-.763" fill="url(#F)"/></g><path d="M106.955 680.42c0 1.019-1.65 2.668-3.686 3.687s-3.686 1.018-3.686 0c0-.643 1.175-4.637 1.175-4.913 0-.692 1.124-1.817 2.511-2.511s2.511-.693 2.511 0c0 .276 1.175 3.095 1.175 3.737z" class="B C D F"/></g></svg>