<svg xmlns="http://www.w3.org/2000/svg" xmlns:xlink="http://www.w3.org/1999/xlink" width="100%" height="100%" viewBox='0 0 37.916 30.519' xmlns:v="https://vecta.io/nano"><style><![CDATA[.B{fill:none}.C{stroke:#696b6d}.D{stroke-width:.253}.E{stroke-linejoin:round}.F{fill:#fff}]]></style><defs><clipPath id="A"><path d="M165.451 649.022c0-.134-.571-13.07-.571-13.384h0c0-.495.801-.897 1.794-.897h0c.989 0 1.792.402 1.792.897h0c0 .314-.574 13.25-.574 13.384h0c0 .337-.545.612-1.218.612h0c-.677 0-1.223-.275-1.223-.612"/></clipPath><linearGradient x1="165.343" y1="642.188" x2="168.464" y2="642.188" gradientUnits="userSpaceOnUse" spreadMethod="pad" id="B"><stop offset="0" stop-color="#c7c8ca"/><stop offset=".129" stop-color="#c7c8ca"/><stop offset=".522" stop-color="#fff"/><stop offset=".663" stop-color="#fff"/><stop offset=".86" stop-color="#c7c8ca"/><stop offset="1" stop-color="#fff"/></linearGradient><clipPath id="C"><path d="M170.344 646.638c0-.132-.573-13.07-.573-13.384h0c0-.495.803-.896 1.795-.896h0c.988 0 1.791.401 1.791.896h0c0 .314-.571 13.252-.571 13.384h0c0 .337-.547.611-1.22.611h0c-.677 0-1.222-.274-1.222-.611"/></clipPath><linearGradient x1="170.236" y1="639.804" x2="173.357" y2="639.804" gradientUnits="userSpaceOnUse" spreadMethod="pad" id="D"><stop offset="0" stop-color="#c7c8ca"/><stop offset=".129" stop-color="#c7c8ca"/><stop offset=".522" stop-color="#fff"/><stop offset=".663" stop-color="#fff"/><stop offset=".86" stop-color="#c7c8ca"/><stop offset="1" stop-color="#fff"/></linearGradient><clipPath id="E"><path d="M152.155 643.185l4.824-2.411 4.822 2.411-4.822 2.412z"/></clipPath><linearGradient x1="156.274" y1="641.741" x2="157.929" y2="645.134" gradientUnits="userSpaceOnUse" spreadMethod="pad" id="F"><stop offset="0" stop-color="#c7c8ca"/><stop offset=".129" stop-color="#c7c8ca"/><stop offset=".522" stop-color="#fff"/><stop offset=".663" stop-color="#fff"/><stop offset=".86" stop-color="#c7c8ca"/><stop offset="1" stop-color="#fff"/></linearGradient><clipPath id="G"><path d="M157.913 638.308l10.086-5.045 3.362 1.682-10.086 5.042z"/></clipPath><linearGradient x1="164.133" y1="635.594" x2="165.315" y2="638.017" gradientUnits="userSpaceOnUse" spreadMethod="pad" id="H"><stop offset="0" stop-color="#c7c8ca"/><stop offset=".129" stop-color="#c7c8ca"/><stop offset=".522" stop-color="#fff"/><stop offset=".663" stop-color="#fff"/><stop offset=".86" stop-color="#c7c8ca"/><stop offset="1" stop-color="#fff"/></linearGradient><path id="I" d="M165.166 649.207c0 .417.675.753 1.507.753s1.507-.336 1.507-.753v-.465c0-.415-.675-.752-1.507-.752s-1.507.337-1.507.752z"/><path id="J" d="M170.058 646.823c0 .417.675.752 1.507.752s1.506-.335 1.506-.752v-.463c0-.418-.675-.754-1.506-.754s-1.507.336-1.507.754z"/><path id="K" d="M148.064 636.234l1.473 2.859 4.612 2.308 1.064-.457v-1.522l-3.61-1.806-1.257-2.24v-2.952l-1.218-.608-1.064.456z"/><path id="L" d="M150.601 638.637l4.612 2.306v-1.521l-3.609-1.807-1.258-2.24v-2.952l-1.217-.608v3.962z"/></defs><g transform="matrix(1.333333 0 0 -1.333333 -195.45867 867.28)"><g fill="#939598"><path d="M172.516 630.418c0-1.572-2.548-2.847-5.69-2.847s-5.692 1.275-5.692 2.847 2.548 2.846 5.692 2.846 5.69-1.274 5.69-2.846m-14.538 2.234c0-1.572-2.548-2.845-5.692-2.845s-5.692 1.273-5.692 2.845 2.549 2.846 5.692 2.846 5.692-1.274 5.692-2.846"/><path d="M160.782 634.395c0-1.572-2.548-2.845-5.692-2.845s-5.693 1.273-5.693 2.845 2.549 2.845 5.693 2.845 5.692-1.273 5.692-2.845m14.249-.636c0-1.573-2.549-2.846-5.694-2.846s-5.691 1.273-5.691 2.846 2.547 2.845 5.691 2.845 5.694-1.273 5.694-2.845"/><path d="M167.807 631.989c0-1.572-2.549-2.845-5.693-2.845s-5.692 1.273-5.692 2.845 2.549 2.844 5.692 2.844 5.693-1.272 5.693-2.844"/></g><g clip-path="url(#A)"><path d="M165.451 649.022c0-.134-.571-13.07-.571-13.384h0c0-.495.801-.897 1.794-.897h0c.989 0 1.792.402 1.792.897h0c0 .314-.574 13.25-.574 13.384h0c0 .337-.545.612-1.218.612h0c-.677 0-1.223-.275-1.223-.612" fill="url(#B)"/></g><path d="M168.465 635.638c0-.495-.803-.896-1.792-.896s-1.793.401-1.793.896c0 .313.572 13.251.572 13.385 0 .336.545.61 1.221.61s1.221-.274 1.221-.61c0-.134.571-13.072.571-13.385z" class="B C D E"/><use xlink:href="#I" class="F"/><use xlink:href="#I" class="B C D E"/><path d="M165.596 649.141c0-.296.482-.538 1.077-.538s1.076.242 1.076.538-.483.538-1.076.538-1.077-.24-1.077-.538" class="F"/><path d="M165.596 649.141c0-.296.482-.538 1.077-.538s1.076.242 1.076.538-.483.538-1.076.538-1.077-.24-1.077-.538z" class="B C D E"/><g clip-path="url(#C)"><path d="M170.344 646.638c0-.132-.573-13.07-.573-13.384h0c0-.495.803-.896 1.795-.896h0c.988 0 1.791.401 1.791.896h0c0 .314-.571 13.252-.571 13.384h0c0 .337-.547.611-1.22.611h0c-.677 0-1.222-.274-1.222-.611" fill="url(#D)"/></g><path d="M173.357 633.255c0-.495-.803-.896-1.792-.896s-1.792.401-1.792.896c0 .312.571 13.25.571 13.383 0 .336.545.612 1.221.612s1.221-.276 1.221-.612c0-.133.571-13.071.571-13.383z" class="B C D E"/><use xlink:href="#J" class="F"/><use xlink:href="#J" class="B C D E"/><path d="M170.488 646.757c0-.297.482-.538 1.077-.538s1.075.241 1.075.538-.481.537-1.075.537-1.077-.24-1.077-.537" class="F"/><path d="M170.488 646.757c0-.297.482-.538 1.077-.538s1.075.241 1.075.538-.481.537-1.075.537-1.077-.24-1.077-.537z" class="B C D E"/><path d="M152.156 643.185l4.823 2.411 4.823-2.411v-7.406l-4.823-2.412-4.823 2.412z" class="F"/><path d="M152.156 643.185l4.823 2.411 4.823-2.411v-7.406l-4.823-2.412-4.823 2.412z" class="B C D E"/><g clip-path="url(#E)"><path d="M152.155 643.185l4.824-2.411 4.822 2.411-4.822 2.412z" fill="url(#F)"/></g><path d="M152.156 643.185l4.823-2.411 4.823 2.411-4.823 2.411zm4.823-2.411v-7.336" class="B C D E"/><path d="M157.912 638.308l3.363 1.681 10.085-5.043v-4.493l-3.362-1.681-10.086 5.043z" class="F"/><path d="M157.912 638.308l3.363 1.681 10.085-5.043v-4.493l-3.362-1.681-10.086 5.043z" class="B C D E"/><g clip-path="url(#G)"><path d="M157.913 638.308l10.086-5.045 3.362 1.682-10.086 5.042z" fill="url(#H)"/></g><path d="M157.912 638.308l10.086-5.044 3.362 1.682-10.085 5.043zm10.086-5.044v-4.492" class="B C D E"/><path d="M158.527 634.532l1.949.975 1.95-.975v-2.993l-1.95-.974-1.949.974z" class="F"/><path d="M158.527 634.532l1.949.975 1.95-.975v-2.993l-1.95-.974-1.949.974z" class="B C D E"/><path d="M158.527 634.532l1.949-.974 1.95.974-1.95.975z" class="F"/><g class="B C D E"><path d="M158.527 634.532l1.949-.974 1.95.974-1.95.975z"/><path d="M160.476 633.558v-2.964"/></g><path d="M161.695 632.937l1.951.975 1.948-.975v-2.993l-1.948-.975-1.951.975z" class="F"/><path d="M161.695 632.937l1.951.975 1.948-.975v-2.993l-1.948-.975-1.951.975z" class="B C D E"/><path d="M161.695 632.937l1.951-.975 1.948.975-1.948.975z" class="F"/><g class="B C D E"><path d="M161.695 632.937l1.951-.975 1.948.975-1.948.975z"/><path d="M163.645 631.961v-2.964"/></g><use xlink:href="#K" class="F"/><use xlink:href="#K" class="B C D E"/><use xlink:href="#L" class="F"/><g class="B C D E"><use xlink:href="#L"/><path d="M150.601 638.637l-1.063.456m-.42-3.322l-1.064.455"/></g></g></svg>