<svg xmlns="http://www.w3.org/2000/svg" xmlns:xlink="http://www.w3.org/1999/xlink" width="100%" height="100%" viewBox='0 0 47.271 32.499' xmlns:v="https://vecta.io/nano"><style><![CDATA[.B{fill:none}.C{stroke-width:.253}.D{stroke-linejoin:round}.E{stroke:#696b6d}.F{fill:#fff}.G{stroke:#f89921}.H{fill:#f89921}.I{stroke:#ea6e24}]]></style><defs><clipPath id="A"><path d="M220.941 470.822c-.194-.515-.482-.937-.78-1.188h0l-14.173-6.965v-.533l2.15-1.068 14.192 6.979c.41.152.857.687 1.127 1.403h0c.364.964.268 1.892-.215 2.073h0l-2.214 1.081h0c.197-.389.179-1.075-.087-1.782"/></clipPath><linearGradient x1="219.32" y1="466.836" x2="206.002" y2="466.836" spreadMethod="pad" id="B" xlink:href="#a"><stop offset="0" stop-color="#ea6e24"/><stop offset=".247" stop-color="#ea6e24"/><stop offset=".416" stop-color="#f7ec18"/><stop offset=".489" stop-color="#ef4723"/><stop offset=".584" stop-color="#febe10"/><stop offset=".702" stop-color="#f7ec18"/><stop offset=".792" stop-color="#ea6e24"/><stop offset=".86" stop-color="#e5b63b"/><stop offset="1" stop-color="#ffd557"/></linearGradient><clipPath id="C"><path d="M220.941 470.822c-.194-.515-.482-.937-.78-1.188h0l-14.173-6.965 2.15-1.067 14.084 6.921h0l.083.066c.303.252.593.676.791 1.197h0c.361.964.266 1.892-.215 2.073h0l-1.745.718h0a.61.61 0 0 1-.108.027h0c.197-.389.179-1.075-.087-1.782"/></clipPath><linearGradient x1="212.993" y1="463.555" x2="218.17" y2="474.169" spreadMethod="pad" id="D" xlink:href="#a"><stop offset="0" stop-color="#ea6e24"/><stop offset=".247" stop-color="#ea6e24"/><stop offset=".416" stop-color="#f7ec18"/><stop offset=".489" stop-color="#ef4723"/><stop offset=".584" stop-color="#febe10"/><stop offset=".702" stop-color="#f7ec18"/><stop offset=".792" stop-color="#ea6e24"/><stop offset=".86" stop-color="#e5b63b"/><stop offset="1" stop-color="#ffd557"/></linearGradient><clipPath id="E"><path d="M200.84 460.238v-.531l2.148-1.07 4.123 1.941v.533l-2.148 1.069z"/></clipPath><linearGradient x1="200.84" y1="460.408" x2="207.111" y2="460.408" spreadMethod="pad" id="F" xlink:href="#a"><stop offset="0" stop-color="#ea6e24"/><stop offset=".247" stop-color="#ea6e24"/><stop offset=".416" stop-color="#f7ec18"/><stop offset=".489" stop-color="#ef4723"/><stop offset=".584" stop-color="#febe10"/><stop offset=".702" stop-color="#f7ec18"/><stop offset=".792" stop-color="#ea6e24"/><stop offset=".86" stop-color="#e5b63b"/><stop offset="1" stop-color="#ffd557"/></linearGradient><clipPath id="G"><path d="M195.485 457.791v-.532l2.149-1.071 4.122 1.942v.533l-2.149 1.069z"/></clipPath><linearGradient x1="195.484" y1="457.96" x2="201.755" y2="457.96" spreadMethod="pad" id="H" xlink:href="#a"><stop offset="0" stop-color="#ea6e24"/><stop offset=".247" stop-color="#ea6e24"/><stop offset=".416" stop-color="#f7ec18"/><stop offset=".489" stop-color="#ef4723"/><stop offset=".584" stop-color="#febe10"/><stop offset=".702" stop-color="#f7ec18"/><stop offset=".792" stop-color="#ea6e24"/><stop offset=".86" stop-color="#e5b63b"/><stop offset="1" stop-color="#ffd557"/></linearGradient><clipPath id="I"><path d="M223.923 469.332c-.196-.517-.483-.936-.781-1.19h0l-14.17-6.963v-.534l2.146-1.067 14.193 6.978c.411.153.859.685 1.129 1.403h0c.363.964.266 1.891-.215 2.073h0c-.035.014-2.177 1.076-2.215 1.079h0c.199-.388.177-1.073-.087-1.779"/></clipPath><linearGradient x1="222.296" y1="465.345" x2="208.978" y2="465.345" spreadMethod="pad" id="J" xlink:href="#a"><stop offset="0" stop-color="#ea6e24"/><stop offset=".247" stop-color="#ea6e24"/><stop offset=".416" stop-color="#f7ec18"/><stop offset=".489" stop-color="#ef4723"/><stop offset=".584" stop-color="#febe10"/><stop offset=".702" stop-color="#f7ec18"/><stop offset=".792" stop-color="#ea6e24"/><stop offset=".86" stop-color="#e5b63b"/><stop offset="1" stop-color="#ffd557"/></linearGradient><clipPath id="K"><path d="M223.923 469.332c-.196-.517-.483-.936-.781-1.19h0l-14.17-6.963 2.146-1.068 14.085 6.922h0l.085.064c.302.251.593.676.788 1.198h0c.364.963.27 1.894-.215 2.075h0l-1.741.715h0c-.035.014-.072.023-.11.026h0c.199-.388.177-1.073-.087-1.779"/></clipPath><linearGradient x1="215.963" y1="462.038" x2="221.14" y2="472.652" spreadMethod="pad" id="L" xlink:href="#a"><stop offset="0" stop-color="#ea6e24"/><stop offset=".247" stop-color="#ea6e24"/><stop offset=".416" stop-color="#f7ec18"/><stop offset=".489" stop-color="#ef4723"/><stop offset=".584" stop-color="#febe10"/><stop offset=".702" stop-color="#f7ec18"/><stop offset=".792" stop-color="#ea6e24"/><stop offset=".86" stop-color="#e5b63b"/><stop offset="1" stop-color="#ffd557"/></linearGradient><clipPath id="M"><path d="M203.9 458.708v-.532l2.148-1.069 4.124 1.941v.533l-2.15 1.069z"/></clipPath><linearGradient x1="203.901" y1="458.879" x2="210.172" y2="458.879" spreadMethod="pad" id="N" xlink:href="#a"><stop offset="0" stop-color="#ea6e24"/><stop offset=".247" stop-color="#ea6e24"/><stop offset=".416" stop-color="#f7ec18"/><stop offset=".489" stop-color="#ef4723"/><stop offset=".584" stop-color="#febe10"/><stop offset=".702" stop-color="#f7ec18"/><stop offset=".792" stop-color="#ea6e24"/><stop offset=".86" stop-color="#e5b63b"/><stop offset="1" stop-color="#ffd557"/></linearGradient><clipPath id="O"><path d="M198.545 456.261v-.532l2.149-1.071 4.121 1.942v.533l-2.148 1.068z"/></clipPath><linearGradient x1="198.545" y1="456.43" x2="204.815" y2="456.43" spreadMethod="pad" id="P" xlink:href="#a"><stop offset="0" stop-color="#ea6e24"/><stop offset=".247" stop-color="#ea6e24"/><stop offset=".416" stop-color="#f7ec18"/><stop offset=".489" stop-color="#ef4723"/><stop offset=".584" stop-color="#febe10"/><stop offset=".702" stop-color="#f7ec18"/><stop offset=".792" stop-color="#ea6e24"/><stop offset=".86" stop-color="#e5b63b"/><stop offset="1" stop-color="#ffd557"/></linearGradient><clipPath id="Q"><path d="M226.542 477.835c0-.303.547-.551 1.221-.551h0c.672 0 1.22.248 1.22.551h0c0 .304-.548.552-1.22.552h0c-.674 0-1.221-.248-1.221-.552"/></clipPath><linearGradient x1="228.478" y1="477.236" x2="226.997" y2="478.479" spreadMethod="pad" id="R" xlink:href="#a"><stop offset="0" stop-color="#ea6e24"/><stop offset=".034" stop-color="#ea6e24"/><stop offset=".404" stop-color="#ffd557"/><stop offset=".663" stop-color="#f57f20"/><stop offset="1" stop-color="#ea6e24"/></linearGradient><clipPath id="S"><path d="M220.889 474.332l2.274-1.135.357.177-2.276 1.137z"/></clipPath><linearGradient x1="222.491" y1="474.195" x2="221.898" y2="473.488" spreadMethod="pad" id="T" xlink:href="#a"><stop offset="0" stop-color="#ea6e24"/><stop offset=".034" stop-color="#ea6e24"/><stop offset=".404" stop-color="#ffd557"/><stop offset=".663" stop-color="#f57f20"/><stop offset="1" stop-color="#ea6e24"/></linearGradient><clipPath id="U"><path d="M223.871 472.842l2.274-1.138.354.18-2.272 1.135z"/></clipPath><linearGradient x1="225.473" y1="472.704" x2="224.879" y2="471.997" spreadMethod="pad" id="V" xlink:href="#a"><stop offset="0" stop-color="#ea6e24"/><stop offset=".034" stop-color="#ea6e24"/><stop offset=".404" stop-color="#ffd557"/><stop offset=".663" stop-color="#f57f20"/><stop offset="1" stop-color="#ea6e24"/></linearGradient><clipPath id="W"><path d="M221.979 476.471l4.599-2.301.719.36-4.6 2.3z"/></clipPath><linearGradient x1="225.217" y1="476.19" x2="224.017" y2="474.76" spreadMethod="pad" id="X" xlink:href="#a"><stop offset="0" stop-color="#ea6e24"/><stop offset=".034" stop-color="#ea6e24"/><stop offset=".404" stop-color="#ffd557"/><stop offset=".663" stop-color="#f57f20"/><stop offset="1" stop-color="#ea6e24"/></linearGradient><path id="Y" d="M226.138 477.371c0 .448.728.813 1.625.813s1.625-.365 1.625-.813v-1.801c0-.448-.728-.812-1.625-.812s-1.625.364-1.625.812z"/><path id="Z" d="M226.301 477.801c0 .405.654.731 1.462.731s1.462-.326 1.462-.731v-.19c0-.404-.655-.731-1.462-.731s-1.462.327-1.462.731z"/><linearGradient id="a" gradientUnits="userSpaceOnUse"/></defs><g transform="matrix(1.333333 0 0 -1.333333 -260.348 638.70933)"><g fill="#939598"><path d="M222.461 468.83c0-1.05 1.703-1.901 3.803-1.901s3.803.851 3.803 1.901-1.703 1.901-3.803 1.901-3.803-.851-3.803-1.901"/><path d="M216.974 466.723c0-1.526 2.473-2.762 5.524-2.762s5.524 1.236 5.524 2.762-2.473 2.763-5.524 2.763-5.524-1.237-5.524-2.763"/><path d="M211.465 463.969c0-1.526 2.474-2.762 5.524-2.762s5.524 1.236 5.524 2.762-2.473 2.763-5.524 2.763-5.524-1.237-5.524-2.763"/><path d="M205.957 461.215c0-1.525 2.473-2.762 5.524-2.762s5.524 1.237 5.524 2.762-2.473 2.763-5.524 2.763-5.524-1.237-5.524-2.763"/><path d="M200.449 458.46c0-1.525 2.472-2.762 5.523-2.762s5.525 1.237 5.525 2.762-2.474 2.762-5.525 2.762-5.523-1.236-5.523-2.762"/></g><path d="M223.602 469.179c.077-.029.188.073.247.23s.044.308-.034.337c-.015.006-2.305 1.186-2.32 1.191-.078.03-.19-.072-.249-.23s-.043-.307.035-.336l2.321-1.192" class="F"/><path d="M223.602 469.179c.077-.029.188.073.247.23s.044.308-.034.337c-.015.006-2.305 1.186-2.32 1.191-.078.03-.19-.072-.249-.23s-.043-.307.035-.336l2.321-1.192z" class="B C D E"/><path d="M223.602 469.179c-.078.029-.095.18-.036.337s.171.26.249.23.093-.18.034-.337-.17-.259-.247-.23" class="F"/><path d="M223.602 469.179c-.078.029-.095.18-.036.337s.171.26.249.23.093-.18.034-.337-.17-.259-.247-.23z" class="B C D E"/><path d="M223.784 469.774c.078-.03.19.073.25.23s.043.308-.036.337c-.015.006-2.304 1.186-2.32 1.191-.078.03-.19-.073-.248-.23s-.044-.307.035-.337c.014-.005 2.304-1.185 2.319-1.191" class="F"/><path d="M223.784 469.774c.078-.03.19.073.25.23s.043.308-.036.337c-.015.006-2.304 1.186-2.32 1.191-.078.03-.19-.073-.248-.23s-.044-.307.035-.337c.014-.005 2.304-1.185 2.319-1.191z" class="B C D E"/><path d="M223.784 469.774c-.077.029-.093.18-.034.337s.17.259.248.23.094-.181.036-.337-.172-.26-.25-.23" class="F"/><path d="M223.784 469.774c-.077.029-.093.18-.034.337s.17.259.248.23.094-.181.036-.337-.172-.26-.25-.23z" class="B C D E"/><path d="M223.339 468.618c.077-.029.189.073.248.23s.044.308-.035.337c-.015.006-2.304 1.186-2.319 1.192-.079.029-.19-.074-.249-.231s-.044-.307.035-.336c.015-.006 2.305-1.186 2.32-1.192" class="F"/><path d="M223.339 468.618c.077-.029.189.073.248.23s.044.308-.035.337c-.015.006-2.304 1.186-2.319 1.192-.079.029-.19-.074-.249-.231s-.044-.307.035-.336c.015-.006 2.305-1.186 2.32-1.192z" class="B C D E"/><path d="M223.339 468.618c-.079.029-.094.18-.035.337s.17.26.248.23.094-.18.035-.337-.171-.259-.248-.23" class="F"/><path d="M223.339 468.618c-.079.029-.094.18-.035.337s.17.26.248.23.094-.18.035-.337-.171-.259-.248-.23z" class="B C D E"/><path d="M223.012 468.143c.078-.029.189.073.248.23s.043.308-.034.337c-.015.006-2.305 1.186-2.32 1.191-.078.03-.19-.073-.249-.23s-.043-.307.035-.337c.015-.006 2.305-1.185 2.32-1.191" class="F"/><path d="M223.012 468.143c.078-.029.189.073.248.23s.043.308-.034.337c-.015.006-2.305 1.186-2.32 1.191-.078.03-.19-.073-.249-.23s-.043-.307.035-.337c.015-.006 2.305-1.185 2.32-1.191z" class="B C D E"/><path d="M223.012 468.143c-.078.029-.094.18-.035.337s.17.26.249.23.094-.18.034-.337-.17-.259-.248-.23" class="F"/><path d="M223.012 468.143c-.078.029-.094.18-.035.337s.17.26.249.23.094-.18.034-.337-.17-.259-.248-.23z" class="B C D E"/><path d="M222.646 467.764c.078-.029.19.073.248.23s.044.308-.034.337c-.015.005-2.304 1.186-2.32 1.191-.078.03-.19-.073-.248-.23s-.044-.307.034-.336c.016-.006 2.305-1.186 2.32-1.192" class="F"/><path d="M222.646 467.764c.078-.029.19.073.248.23s.044.308-.034.337c-.015.005-2.304 1.186-2.32 1.191-.078.03-.19-.073-.248-.23s-.044-.307.034-.336c.016-.006 2.305-1.186 2.32-1.192z" class="B C D E"/><path d="M222.646 467.764c-.077.029-.093.18-.034.337s.17.259.248.23.094-.18.034-.337-.17-.259-.248-.23" class="F"/><path d="M222.646 467.764c-.077.029-.093.18-.034.337s.17.259.248.23.094-.18.034-.337-.17-.259-.248-.23z" class="B C D E"/><path d="M222.282 467.483c.077-.029.189.074.248.23s.044.308-.034.337c-.016.006-2.305 1.186-2.32 1.191-.079.03-.19-.073-.249-.23s-.044-.307.035-.337c.014-.006 2.304-1.185 2.32-1.191" class="F"/><path d="M222.282 467.483c.077-.029.189.074.248.23s.044.308-.034.337c-.016.006-2.305 1.186-2.32 1.191-.079.03-.19-.073-.249-.23s-.044-.307.035-.337c.014-.006 2.304-1.185 2.32-1.191z" class="B C D E"/><path d="M222.282 467.483c-.079.029-.094.18-.035.336s.17.261.249.231.093-.18.034-.337-.171-.259-.248-.23" class="F"/><path d="M222.282 467.483c-.079.029-.094.18-.035.336s.17.261.249.231.093-.18.034-.337-.171-.259-.248-.23z" class="B C D E"/><path d="M221.915 467.3c.078-.029.189.073.248.23s.043.307-.033.336c-.015.006-2.306 1.187-2.321 1.192-.078.03-.19-.073-.248-.23s-.043-.307.034-.337c.014-.006 2.305-1.185 2.32-1.191" class="F"/><path d="M221.915 467.3c.078-.029.189.073.248.23s.043.307-.033.336c-.015.006-2.306 1.187-2.321 1.192-.078.03-.19-.073-.248-.23s-.043-.307.034-.337c.014-.006 2.305-1.185 2.32-1.191z" class="B C D E"/><path d="M221.915 467.3c-.078.029-.093.18-.035.337s.17.259.25.229.093-.18.033-.336-.17-.259-.248-.23" class="F"/><path d="M221.915 467.3c-.078.029-.093.18-.035.337s.17.259.25.229.093-.18.033-.336-.17-.259-.248-.23z" class="B C D E"/><path d="M221.549 467.117c.079-.029.19.073.248.23s.045.308-.034.337c-.015.006-2.304 1.186-2.32 1.191-.078.03-.189-.073-.248-.229s-.044-.308.034-.337c.016-.006 2.305-1.186 2.32-1.192" class="F"/><path d="M221.549 467.117c.079-.029.19.073.248.23s.045.308-.034.337c-.015.006-2.304 1.186-2.32 1.191-.078.03-.189-.073-.248-.229s-.044-.308.034-.337c.016-.006 2.305-1.186 2.32-1.192z" class="B C D E"/><path d="M221.549 467.117c-.078.029-.093.18-.035.338s.17.258.249.229.094-.18.034-.337-.169-.259-.248-.23" class="F"/><path d="M221.549 467.117c-.078.029-.093.18-.035.338s.17.258.249.229.094-.18.034-.337-.169-.259-.248-.23z" class="B C D E"/><path d="M221.182 466.933c.079-.029.19.074.25.23s.043.309-.035.338c-.015.006-2.306 1.185-2.321 1.191-.078.029-.189-.073-.248-.23s-.043-.308.034-.337c.016-.005 2.305-1.186 2.32-1.192" class="F"/><path d="M221.182 466.933c.079-.029.19.074.25.23s.043.309-.035.338c-.015.006-2.306 1.185-2.321 1.191-.078.029-.189-.073-.248-.23s-.043-.308.034-.337c.016-.005 2.305-1.186 2.32-1.192z" class="B C D E"/><path d="M221.182 466.933c-.078.029-.093.181-.034.337s.169.26.249.231.093-.181.035-.338-.171-.259-.25-.23" class="F"/><path d="M221.182 466.933c-.078.029-.093.181-.034.337s.169.26.249.231.093-.181.035-.338-.171-.259-.25-.23z" class="B C D E"/><path d="M220.817 466.75c.078-.029.189.073.248.231s.044.307-.035.336c-.014.006-2.304 1.186-2.319 1.192-.078.029-.19-.074-.249-.23s-.044-.308.035-.337c.015-.006 2.304-1.185 2.32-1.192" class="F"/><path d="M220.817 466.75c.078-.029.189.073.248.231s.044.307-.035.336c-.014.006-2.304 1.186-2.319 1.192-.078.029-.19-.074-.249-.23s-.044-.308.035-.337c.015-.006 2.304-1.185 2.32-1.192z" class="B C D E"/><path d="M220.817 466.75c-.079.03-.094.18-.035.337s.171.26.248.23.095-.18.035-.336-.17-.26-.248-.231" class="F"/><path d="M220.817 466.75c-.079.03-.094.18-.035.337s.171.26.248.23.095-.18.035-.336-.17-.26-.248-.231z" class="B C D E"/><path d="M220.451 466.568c.078-.03.189.074.248.23s.044.307-.034.337c-.015.006-2.305 1.186-2.32 1.191-.078.03-.189-.073-.249-.23s-.043-.308.035-.337c.014-.006 2.305-1.185 2.32-1.191" class="F"/><path d="M220.451 466.568c.078-.03.189.074.248.23s.044.307-.034.337c-.015.006-2.305 1.186-2.32 1.191-.078.03-.189-.073-.249-.23s-.043-.308.035-.337c.014-.006 2.305-1.185 2.32-1.191z" class="B C D E"/><path d="M220.451 466.568c-.079.029-.094.18-.035.337s.17.26.249.23.094-.181.034-.337-.17-.26-.248-.23" class="F"/><path d="M220.451 466.568c-.079.029-.094.18-.035.337s.17.26.249.23.094-.181.034-.337-.17-.26-.248-.23z" class="B C D E"/><path d="M220.085 466.384c.078-.029.188.074.248.23s.044.308-.035.337c-.014.006-2.305 1.186-2.319 1.191-.079.03-.191-.073-.249-.229s-.044-.308.034-.338c.016-.005 2.306-1.185 2.321-1.191" class="F"/><path d="M220.085 466.384c.078-.029.188.074.248.23s.044.308-.035.337c-.014.006-2.305 1.186-2.319 1.191-.079.03-.191-.073-.249-.229s-.044-.308.034-.338c.016-.005 2.306-1.185 2.321-1.191z" class="B C D E"/><path d="M220.085 466.384c-.079.029-.094.18-.036.337s.17.26.249.23.095-.18.035-.337-.17-.259-.248-.23" class="F"/><path d="M220.085 466.384c-.079.029-.094.18-.036.337s.17.26.249.23.095-.18.035-.337-.17-.259-.248-.23z" class="B C D E"/><path d="M219.718 466.202c.079-.029.189.073.249.23s.043.307-.035.337c-.015.006-2.305 1.186-2.32 1.191-.079.03-.19-.073-.249-.23s-.043-.307.035-.336c.016-.007 2.305-1.187 2.32-1.192" class="F"/><path d="M219.718 466.202c.079-.029.189.073.249.23s.043.307-.035.337c-.015.006-2.305 1.186-2.32 1.191-.079.03-.19-.073-.249-.23s-.043-.307.035-.336c.016-.007 2.305-1.187 2.32-1.192z" class="B C D E"/><path d="M219.718 466.202c-.079.029-.094.18-.035.336s.17.261.249.231.094-.181.035-.337-.17-.259-.249-.23" class="F"/><path d="M219.718 466.202c-.079.029-.094.18-.035.336s.17.261.249.231.094-.181.035-.337-.17-.259-.249-.23z" class="B C D E"/><path d="M219.352 466.018c.078-.029.189.073.248.23s.044.308-.034.337c-.015.006-2.306 1.186-2.32 1.191-.078.03-.19-.073-.249-.23s-.044-.307.035-.336l2.32-1.192" class="F"/><path d="M219.352 466.018c.078-.029.189.073.248.23s.044.308-.034.337c-.015.006-2.306 1.186-2.32 1.191-.078.03-.19-.073-.249-.23s-.044-.307.035-.336l2.32-1.192z" class="B C D E"/><path d="M219.352 466.018c-.078.029-.094.18-.035.338s.17.259.249.229.094-.18.034-.337-.17-.259-.248-.23" class="F"/><path d="M219.352 466.018c-.078.029-.094.18-.035.338s.17.259.249.229.094-.18.034-.337-.17-.259-.248-.23z" class="B C D E"/><path d="M218.986 465.835c.077-.029.189.073.248.23s.043.308-.035.337c-.015.005-2.305 1.186-2.319 1.191-.079.03-.19-.073-.249-.23s-.044-.307.035-.336c.014-.006 2.304-1.187 2.32-1.192" class="F"/><path d="M218.986 465.835c.077-.029.189.073.248.23s.043.308-.035.337c-.015.005-2.305 1.186-2.319 1.191-.079.03-.19-.073-.249-.23s-.044-.307.035-.336c.014-.006 2.304-1.187 2.32-1.192z" class="B C D E"/><path d="M218.986 465.835c-.079.029-.095.18-.036.337s.171.259.249.23.094-.18.035-.337-.171-.259-.248-.23" class="F"/><path d="M218.986 465.835c-.079.029-.095.18-.036.337s.171.259.249.23.094-.18.035-.337-.171-.259-.248-.23z" class="B C D E"/><path d="M218.62 465.652c.079-.029.189.073.248.231s.045.307-.035.336c-.014.005-2.304 1.186-2.319 1.192-.078.029-.19-.074-.249-.23s-.043-.308.035-.337c.015-.006 2.305-1.186 2.32-1.192" class="F"/><path d="M218.62 465.652c.079-.029.189.073.248.231s.045.307-.035.336c-.014.005-2.304 1.186-2.319 1.192-.078.029-.19-.074-.249-.23s-.043-.308.035-.337c.015-.006 2.305-1.186 2.32-1.192z" class="B C D E"/><path d="M218.62 465.652c-.078.03-.094.181-.035.338s.171.259.248.229.095-.18.035-.336-.169-.26-.248-.231" class="F"/><path d="M218.62 465.652c-.078.03-.094.181-.035.338s.171.259.248.229.095-.18.035-.336-.169-.26-.248-.231z" class="B C D E"/><path d="M218.253 465.469c.078-.03.19.074.248.23s.044.308-.034.337c-.015.006-2.305 1.186-2.32 1.191-.078.03-.19-.073-.249-.23s-.043-.307.035-.337c.016-.005 2.305-1.185 2.32-1.191" class="F"/><path d="M218.253 465.469c.078-.03.19.074.248.23s.044.308-.034.337c-.015.006-2.305 1.186-2.32 1.191-.078.03-.19-.073-.249-.23s-.043-.307.035-.337c.016-.005 2.305-1.185 2.32-1.191z" class="B C D E"/><path d="M218.253 465.469c-.079.029-.093.18-.034.337s.169.259.248.23.094-.18.034-.337-.17-.26-.248-.23" class="F"/><path d="M218.253 465.469c-.079.029-.093.18-.034.337s.169.259.248.23.094-.18.034-.337-.17-.26-.248-.23z" class="B C D E"/><path d="M223.877 470.369c.077-.029.19.074.248.231s.044.307-.035.336c-.015.005-2.305 1.186-2.319 1.192-.078.029-.19-.074-.249-.23s-.044-.308.035-.337c.015-.006 2.304-1.186 2.32-1.192" class="F"/><path d="M223.877 470.369c.077-.029.19.074.248.231s.044.307-.035.336c-.015.005-2.305 1.186-2.319 1.192-.078.029-.19-.074-.249-.23s-.044-.308.035-.337c.015-.006 2.304-1.186 2.32-1.192z" class="B C D E"/><path d="M223.877 470.369c-.079.03-.094.181-.035.337s.17.26.248.23.095-.18.035-.336-.171-.26-.248-.231" class="F"/><path d="M223.877 470.369c-.079.03-.094.181-.035.337s.17.26.248.23.095-.18.035-.336-.171-.26-.248-.231z" class="B C D E"/><path d="M223.967 470.964c.078-.029.19.073.249.23s.044.308-.035.337c-.015.006-2.304 1.186-2.32 1.191-.078.03-.189-.073-.248-.23s-.044-.307.034-.337c.016-.005 2.305-1.185 2.32-1.191" class="F"/><path d="M223.967 470.964c.078-.029.19.073.249.23s.044.308-.035.337c-.015.006-2.304 1.186-2.32 1.191-.078.03-.189-.073-.248-.23s-.044-.307.034-.337c.016-.005 2.305-1.185 2.32-1.191z" class="B C D E"/><path d="M223.967 470.964c-.078.029-.093.18-.035.338s.17.258.249.229.094-.18.035-.337-.171-.259-.249-.23" class="F"/><path d="M223.967 470.964c-.078.029-.093.18-.035.338s.17.258.249.229.094-.18.035-.337-.171-.259-.249-.23z" class="B C D E"/><g clip-path="url(#A)"><path d="M220.941 470.822c-.194-.515-.482-.937-.78-1.188h0l-14.173-6.965v-.533l2.15-1.068 14.192 6.979c.41.152.857.687 1.127 1.403h0c.364.964.268 1.892-.215 2.073h0l-2.214 1.081h0c.197-.389.179-1.075-.087-1.782" fill="url(#B)"/></g><path d="M220.161 469.634c.298.253.585.672.78 1.189.266.705.285 1.391.088 1.78.037-.005 2.179-1.066 2.214-1.079.482-.183.578-1.111.215-2.075-.27-.715-.718-1.25-1.128-1.402l-14.192-6.978-2.148 1.067v.534z" class="B C D G"/><g clip-path="url(#C)"><path d="M220.941 470.822c-.194-.515-.482-.937-.78-1.188h0l-14.173-6.965 2.15-1.067 14.084 6.921h0l.083.066c.303.252.593.676.791 1.197h0c.361.964.266 1.892-.215 2.073h0l-1.745.718h0a.61.61 0 0 1-.108.027h0c.197-.389.179-1.075-.087-1.782" fill="url(#D)"/></g><g class="B C D G"><path d="M208.137 461.602l-2.148 1.068 14.171 6.964c.298.252.586.673.781 1.189.266.705.285 1.391.087 1.78.037-.005.074-.013.11-.026l1.742-.716c.482-.182.578-1.111.215-2.075-.196-.521-.488-.946-.789-1.197l-.085-.066c-.112-.081-14.084-6.921-14.084-6.921z"/><path d="M208.137 461.602v-.508"/></g><path d="M223.014 469.872c.078-.028.189.073.248.231s.044.307-.034.336c-.015.006-2.305 1.186-2.32 1.191-.078.03-.19-.071-.249-.229s-.043-.309.035-.337c.016-.005 2.305-1.186 2.32-1.192" class="F"/><path d="M223.014 469.872c.078-.028.189.073.248.231s.044.307-.034.336c-.015.006-2.305 1.186-2.32 1.191-.078.03-.19-.071-.249-.229s-.043-.309.035-.337c.016-.005 2.305-1.186 2.32-1.192z" class="B C D E"/><path d="M223.014 469.872c-.078.029-.094.18-.035.338s.17.259.249.229.094-.18.034-.336-.17-.259-.248-.231" class="F"/><path d="M223.014 469.872c-.078.029-.094.18-.035.338s.17.259.249.229.094-.18.034-.336-.17-.259-.248-.231z" class="B C D E"/><path d="M223.105 470.468c.078-.029.19.073.249.23s.043.307-.035.337c-.015.005-2.305 1.186-2.32 1.191-.078.029-.189-.073-.248-.23s-.044-.307.034-.337c.015-.006 2.305-1.186 2.32-1.191" class="F"/><path d="M223.105 470.468c.078-.029.19.073.249.23s.043.307-.035.337c-.015.005-2.305 1.186-2.32 1.191-.078.029-.189-.073-.248-.23s-.044-.307.034-.337c.015-.006 2.305-1.186 2.32-1.191z" class="B C D E"/><path d="M223.105 470.468c-.078.029-.093.18-.034.336s.169.26.248.231.095-.181.035-.337-.171-.259-.249-.23" class="F"/><path d="M223.105 470.468c-.078.029-.093.18-.034.336s.169.26.248.231.095-.181.035-.337-.171-.259-.249-.23z" class="B C D E"/><path d="M222.785 469.314c.078-.029.189.074.248.23s.044.308-.034.337c-.015.006-2.305 1.186-2.32 1.191-.079.03-.19-.073-.249-.23s-.044-.307.034-.336l2.321-1.192" class="F"/><path d="M222.785 469.314c.078-.029.189.074.248.23s.044.308-.034.337c-.015.006-2.305 1.186-2.32 1.191-.079.03-.19-.073-.249-.23s-.044-.307.034-.336l2.321-1.192z" class="B C D E"/><path d="M222.785 469.314c-.078.029-.094.18-.035.337s.17.26.249.23.094-.18.034-.337-.17-.259-.248-.23" class="F"/><path d="M222.785 469.314c-.078.029-.094.18-.035.337s.17.26.249.23.094-.18.034-.337-.17-.259-.248-.23z" class="B C D E"/><path d="M222.473 468.847c.078-.029.189.074.249.23s.043.308-.035.337c-.015.006-2.304 1.186-2.32 1.192-.079.029-.19-.073-.248-.231s-.044-.307.034-.336c.016-.006 2.305-1.186 2.32-1.192" class="F"/><path d="M222.473 468.847c.078-.029.189.074.249.23s.043.308-.035.337c-.015.006-2.304 1.186-2.32 1.192-.079.029-.19-.073-.248-.231s-.044-.307.034-.336c.016-.006 2.305-1.186 2.32-1.192z" class="B C D E"/><path d="M222.473 468.847c-.078.029-.094.18-.035.337s.17.26.249.23.094-.18.035-.337-.171-.259-.249-.23" class="F"/><path d="M222.473 468.847c-.078.029-.094.18-.035.337s.17.26.249.23.094-.18.035-.337-.171-.259-.249-.23z" class="B C D E"/><path d="M222.098 468.536c.079-.029.19.073.25.23s.043.308-.036.337c-.015.005-2.305 1.186-2.319 1.192-.078.029-.19-.074-.249-.23s-.043-.308.035-.337c.015-.006 2.304-1.186 2.319-1.192" class="F"/><path d="M222.098 468.536c.079-.029.19.073.25.23s.043.308-.036.337c-.015.005-2.305 1.186-2.319 1.192-.078.029-.19-.074-.249-.23s-.043-.308.035-.337c.015-.006 2.304-1.186 2.319-1.192z" class="B C D E"/><path d="M222.098 468.536c-.077.03-.093.181-.034.337s.17.26.248.23.094-.18.036-.337-.171-.259-.25-.23" class="F"/><path d="M222.098 468.536c-.077.03-.093.181-.034.337s.17.26.248.23.094-.18.036-.337-.171-.259-.25-.23z" class="B C D E"/><path d="M221.732 468.306c.078-.029.189.074.248.231s.045.307-.035.337c-.014.006-2.304 1.186-2.319 1.192-.078.029-.19-.074-.248-.231s-.044-.308.034-.337c.016-.005 2.305-1.186 2.32-1.192" class="F"/><path d="M221.732 468.306c.078-.029.189.074.248.231s.045.307-.035.337c-.014.006-2.304 1.186-2.319 1.192-.078.029-.19-.074-.248-.231s-.044-.308.034-.337c.016-.005 2.305-1.186 2.32-1.192z" class="B C D E"/><path d="M221.732 468.306c-.078.03-.094.181-.035.338s.17.26.248.23.095-.181.035-.337-.17-.26-.248-.231" class="F"/><path d="M221.732 468.306c-.078.03-.094.181-.035.338s.17.26.248.23.095-.181.035-.337-.17-.26-.248-.231z" class="B C D E"/><path d="M221.365 468.124c.079-.03.19.074.25.23s.043.307-.035.337c-.016.005-2.305 1.186-2.321 1.191-.078.03-.19-.073-.248-.23s-.044-.307.035-.337c.015-.005 2.304-1.185 2.319-1.191" class="F"/><path d="M221.365 468.124c.079-.03.19.074.25.23s.043.307-.035.337c-.016.005-2.305 1.186-2.321 1.191-.078.03-.19-.073-.248-.23s-.044-.307.035-.337c.015-.005 2.304-1.185 2.319-1.191z" class="B C D E"/><path d="M221.365 468.124c-.077.029-.093.18-.034.336s.17.26.249.231.093-.181.035-.337-.171-.26-.25-.23" class="F"/><path d="M221.365 468.124c-.077.029-.093.18-.034.336s.17.26.249.231.093-.181.035-.337-.171-.26-.25-.23z" class="B C D E"/><path d="M221 467.941c.079-.029.19.074.248.23s.044.307-.034.337c-.016.006-2.305 1.186-2.32 1.191-.078.03-.19-.073-.248-.23s-.045-.307.034-.336c.015-.006 2.305-1.186 2.32-1.192" class="F"/><path d="M221 467.941c.079-.029.19.074.248.23s.044.307-.034.337c-.016.006-2.305 1.186-2.32 1.191-.078.03-.19-.073-.248-.23s-.045-.307.034-.336c.015-.006 2.305-1.186 2.32-1.192z" class="B C D E"/><path d="M221 467.941c-.078.029-.094.18-.035.337s.171.26.249.23.094-.18.034-.337-.169-.259-.248-.23" class="F"/><path d="M221 467.941c-.078.029-.094.18-.035.337s.171.26.249.23.094-.18.034-.337-.169-.259-.248-.23z" class="B C D E"/><path d="M220.633 467.758c.079-.029.189.073.249.23s.044.307-.034.337c-.015.005-2.306 1.186-2.321 1.191-.078.029-.188-.073-.248-.23s-.043-.307.034-.336c.016-.007 2.305-1.187 2.32-1.192" class="F"/><path d="M220.633 467.758c.079-.029.189.073.249.23s.044.307-.034.337c-.015.005-2.306 1.186-2.321 1.191-.078.029-.188-.073-.248-.23s-.043-.307.034-.336c.016-.007 2.305-1.187 2.32-1.192z" class="B C D E"/><path d="M220.633 467.758c-.078.029-.093.18-.035.337s.17.259.25.23.093-.181.034-.337-.17-.259-.249-.23" class="F"/><path d="M220.633 467.758c-.078.029-.093.18-.035.337s.17.259.25.23.093-.181.034-.337-.17-.259-.249-.23z" class="B C D E"/><path d="M220.267 467.574c.079-.029.189.073.248.23s.045.308-.034.337c-.015.006-2.305 1.186-2.32 1.192-.078.029-.19-.074-.249-.231s-.043-.307.035-.336c.016-.006 2.305-1.186 2.32-1.192" class="F"/><path d="M220.267 467.574c.079-.029.189.073.248.23s.045.308-.034.337c-.015.006-2.305 1.186-2.32 1.192-.078.029-.19-.074-.249-.231s-.043-.307.035-.336c.016-.006 2.305-1.186 2.32-1.192z" class="B C D E"/><path d="M220.267 467.574c-.078.029-.094.18-.035.337s.17.26.249.23.094-.18.034-.337-.169-.259-.248-.23" class="F"/><path d="M220.267 467.574c-.078.029-.094.18-.035.337s.17.26.249.23.094-.18.034-.337-.169-.259-.248-.23z" class="B C D E"/><path d="M219.9 467.392c.079-.029.19.073.248.23s.045.308-.031.337c-.017.005-2.306 1.186-2.321 1.191-.079.03-.191-.073-.25-.23s-.043-.307.035-.336c.015-.006 2.304-1.187 2.319-1.192" class="F"/><path d="M219.9 467.392c.079-.029.19.073.248.23s.045.308-.031.337c-.017.005-2.306 1.186-2.321 1.191-.079.03-.191-.073-.25-.23s-.043-.307.035-.336c.015-.006 2.304-1.187 2.319-1.192z" class="B C D E"/><path d="M219.9 467.392c-.076.029-.093.18-.033.337s.169.259.25.23.091-.181.031-.337-.169-.259-.248-.23" class="F"/><path d="M219.9 467.392c-.076.029-.093.18-.033.337s.169.259.25.23.091-.181.031-.337-.169-.259-.248-.23z" class="B C D E"/><path d="M219.535 467.208c.078-.029.189.073.248.231s.043.307-.034.336c-.016.006-2.305 1.186-2.32 1.192-.079.029-.19-.074-.249-.23s-.044-.308.034-.337c.015-.006 2.305-1.186 2.321-1.192" class="F"/><path d="M219.535 467.208c.078-.029.189.073.248.231s.043.307-.034.336c-.016.006-2.305 1.186-2.32 1.192-.079.029-.19-.074-.249-.23s-.044-.308.034-.337c.015-.006 2.305-1.186 2.321-1.192z" class="B C D E"/><path d="M219.535 467.208c-.079.03-.094.181-.035.337s.17.259.249.23.094-.18.034-.336-.17-.26-.248-.231" class="F"/><path d="M219.535 467.208c-.079.03-.094.181-.035.337s.17.259.249.23.094-.18.034-.336-.17-.26-.248-.231z" class="B C D E"/><path d="M219.169 467.025c.077-.029.189.074.248.23s.044.308-.035.337c-.015.006-2.305 1.186-2.319 1.191-.078.03-.19-.073-.249-.23s-.043-.307.035-.337c.014-.006 2.304-1.185 2.32-1.191" class="F"/><path d="M219.169 467.025c.077-.029.189.074.248.23s.044.308-.035.337c-.015.006-2.305 1.186-2.319 1.191-.078.03-.19-.073-.249-.23s-.043-.307.035-.337c.014-.006 2.304-1.185 2.32-1.191z" class="B C D E"/><path d="M219.169 467.025c-.079.029-.095.18-.035.337s.17.26.248.23.094-.18.035-.337-.171-.259-.248-.23" class="F"/><path d="M219.169 467.025c-.079.029-.095.18-.035.337s.17.26.248.23.094-.18.035-.337-.171-.259-.248-.23z" class="B C D E"/><path d="M218.803 466.842c.077-.029.189.074.248.23s.043.308-.034.338c-.015.005-2.305 1.185-2.32 1.191-.079.029-.19-.074-.249-.23s-.043-.308.035-.338c.016-.005 2.305-1.185 2.32-1.191" class="F"/><path d="M218.803 466.842c.077-.029.189.074.248.23s.043.308-.034.338c-.015.005-2.305 1.185-2.32 1.191-.079.029-.19-.074-.249-.23s-.043-.308.035-.338c.016-.005 2.305-1.185 2.32-1.191z" class="B C D E"/><path d="M218.803 466.842c-.079.029-.094.18-.035.337s.17.26.249.231.094-.181.034-.338-.171-.259-.248-.23" class="F"/><path d="M218.803 466.842c-.079.029-.094.18-.035.337s.17.26.249.231.094-.181.034-.338-.171-.259-.248-.23z" class="B C D E"/><path d="M218.436 466.659c.079-.029.189.074.248.23s.045.307-.033.337c-.016.006-2.305 1.186-2.321 1.191-.078.03-.189-.073-.248-.23s-.044-.307.034-.336c.016-.006 2.305-1.186 2.32-1.192" class="F"/><path d="M218.436 466.659c.079-.029.189.074.248.23s.045.307-.033.337c-.016.006-2.305 1.186-2.321 1.191-.078.03-.189-.073-.248-.23s-.044-.307.034-.336c.016-.006 2.305-1.186 2.32-1.192z" class="B C D E"/><path d="M218.436 466.659c-.078.029-.093.18-.034.336s.169.261.249.231.093-.181.033-.337-.169-.259-.248-.23" class="F"/><path d="M218.436 466.659c-.078.029-.093.18-.034.336s.169.261.249.231.093-.181.033-.337-.169-.259-.248-.23z" class="B C D E"/><path d="M218.071 466.476c.077-.029.189.074.248.23s.043.308-.035.337c-.016.006-2.305 1.186-2.319 1.192-.079.029-.19-.073-.249-.231s-.045-.307.033-.336c.016-.005 2.306-1.186 2.322-1.192" class="F"/><path d="M218.071 466.476c.077-.029.189.074.248.23s.043.308-.035.337c-.016.006-2.305 1.186-2.319 1.192-.079.029-.19-.073-.249-.231s-.045-.307.033-.336c.016-.005 2.306-1.186 2.322-1.192z" class="B C D E"/><path d="M218.071 466.476c-.08.029-.095.18-.035.337s.17.26.248.23.094-.18.035-.337-.171-.259-.248-.23" class="F"/><path d="M218.071 466.476c-.08.029-.095.18-.035.337s.17.26.248.23.094-.18.035-.337-.171-.259-.248-.23z" class="B C D E"/><path d="M217.704 466.293c.078-.029.19.073.248.231s.044.307-.035.336c-.015.006-2.304 1.186-2.319 1.191-.078.03-.19-.073-.248-.23s-.045-.307.034-.336c.015-.006 2.304-1.186 2.32-1.192" class="F"/><path d="M217.704 466.293c.078-.029.19.073.248.231s.044.307-.035.336c-.015.006-2.304 1.186-2.319 1.191-.078.03-.19-.073-.248-.23s-.045-.307.034-.336c.015-.006 2.304-1.186 2.32-1.192z" class="B C D E"/><path d="M217.704 466.293c-.079.029-.094.18-.035.337s.17.26.248.23.095-.18.035-.336-.17-.26-.248-.231" class="F"/><path d="M217.704 466.293c-.079.029-.094.18-.035.337s.17.26.248.23.095-.18.035-.336-.17-.26-.248-.231z" class="B C D E"/><g clip-path="url(#E)"><path d="M200.84 460.238v-.531l2.148-1.07 4.123 1.941v.533l-2.148 1.069z" fill="url(#F)"/></g><path d="M207.111 461.111l-4.123-1.94-2.148 1.068 4.124 1.94z" class="H"/><path d="M202.988 459.171v-.507" class="B C D I"/><g clip-path="url(#G)"><path d="M195.485 457.791v-.532l2.149-1.071 4.122 1.942v.533l-2.149 1.069z" fill="url(#H)"/></g><path d="M201.755 458.663l-4.122-1.941-2.149 1.069 4.124 1.94z" class="H"/><g class="B C D I"><path d="M201.755 458.663l-4.122-1.941-2.149 1.069 4.124 1.94z"/><path d="M197.633 456.723v-.507"/></g><path d="M226.583 467.688c.079-.029.189.072.249.23s.044.307-.035.337c-.015.005-2.304 1.185-2.32 1.192-.078.028-.189-.073-.248-.231s-.044-.307.034-.337c.016-.005 2.305-1.185 2.32-1.191" class="F"/><path d="M226.583 467.688c.079-.029.189.072.249.23s.044.307-.035.337c-.015.005-2.304 1.185-2.32 1.192-.078.028-.189-.073-.248-.231s-.044-.307.034-.337c.016-.005 2.305-1.185 2.32-1.191z" class="B C D E"/><path d="M226.583 467.688c-.078.028-.093.179-.035.337s.17.259.249.23.095-.181.035-.337-.17-.259-.249-.23" class="F"/><path d="M226.583 467.688c-.078.028-.093.179-.035.337s.17.259.249.23.095-.181.035-.337-.17-.259-.249-.23z" class="B C D E"/><path d="M226.766 468.283c.078-.029.19.074.249.23s.044.308-.035.337c-.015.006-2.305 1.186-2.32 1.191-.078.03-.19-.073-.248-.23s-.044-.307.034-.336c.016-.007 2.305-1.186 2.32-1.192" class="F"/><path d="M226.766 468.283c.078-.029.19.074.249.23s.044.308-.035.337c-.015.006-2.305 1.186-2.32 1.191-.078.03-.19-.073-.248-.23s-.044-.307.034-.336c.016-.007 2.305-1.186 2.32-1.192z" class="B C D E"/><path d="M226.766 468.283c-.078.029-.093.18-.035.336s.17.261.249.231.094-.18.035-.337-.171-.259-.249-.23" class="F"/><path d="M226.766 468.283c-.078.029-.093.18-.035.336s.17.261.249.231.094-.18.035-.337-.171-.259-.249-.23z" class="B C D E"/><path d="M226.32 467.127c.078-.029.19.073.249.23s.044.308-.035.337c-.015.005-2.305 1.186-2.32 1.191-.078.03-.19-.073-.248-.23s-.044-.307.035-.337c.015-.006 2.304-1.185 2.319-1.191" class="F"/><path d="M226.32 467.127c.078-.029.19.073.249.23s.044.308-.035.337c-.015.005-2.305 1.186-2.32 1.191-.078.03-.19-.073-.248-.23s-.044-.307.035-.337c.015-.006 2.304-1.185 2.319-1.191z" class="B C D E"/><path d="M226.32 467.127c-.077.029-.094.18-.035.337s.171.259.249.23.094-.18.035-.337-.171-.259-.249-.23" class="F"/><path d="M226.32 467.127c-.077.029-.094.18-.035.337s.171.259.249.23.094-.18.035-.337-.171-.259-.249-.23z" class="B C D E"/><path d="M225.994 466.652c.078-.029.189.074.248.23s.044.308-.034.337c-.016.006-2.305 1.186-2.32 1.191-.078.03-.19-.073-.249-.23s-.043-.307.035-.336l2.32-1.192" class="F"/><path d="M225.994 466.652c.078-.029.189.074.248.23s.044.308-.034.337c-.016.006-2.305 1.186-2.32 1.191-.078.03-.19-.073-.249-.23s-.043-.307.035-.336l2.32-1.192z" class="B C D E"/><path d="M225.994 466.652c-.079.029-.094.18-.035.336s.17.261.249.231.094-.18.034-.337-.17-.259-.248-.23" class="F"/><path d="M225.994 466.652c-.079.029-.094.18-.035.336s.17.261.249.231.094-.18.034-.337-.17-.259-.248-.23z" class="B C D E"/><path d="M225.629 466.272c.078-.029.189.073.248.231s.044.307-.035.336c-.015.006-2.304 1.186-2.32 1.192-.077.029-.189-.073-.248-.23s-.043-.309.035-.337c.015-.006 2.305-1.185 2.32-1.192" class="F"/><path d="M225.629 466.272c.078-.029.189.073.248.231s.044.307-.035.336c-.015.006-2.304 1.186-2.32 1.192-.077.029-.189-.073-.248-.23s-.043-.309.035-.337c.015-.006 2.305-1.185 2.32-1.192z" class="B C D E"/><path d="M225.629 466.272c-.079.03-.094.181-.035.337s.17.26.248.23.094-.18.035-.336-.17-.26-.248-.231" class="F"/><path d="M225.629 466.272c-.079.03-.094.181-.035.337s.17.26.248.23.094-.18.035-.336-.17-.26-.248-.231z" class="B C D E"/><path d="M225.264 465.992c.078-.029.189.073.249.23s.043.307-.035.337c-.015.005-2.305 1.186-2.32 1.191-.079.029-.19-.073-.249-.23s-.043-.307.035-.336l2.32-1.192" class="F"/><path d="M225.264 465.992c.078-.029.189.073.249.23s.043.307-.035.337c-.015.005-2.305 1.186-2.32 1.191-.079.029-.19-.073-.249-.23s-.043-.307.035-.336l2.32-1.192z" class="B C D E"/><path d="M225.264 465.992c-.078.029-.094.18-.035.336s.17.26.249.231.094-.181.035-.337-.171-.259-.249-.23" class="F"/><path d="M225.264 465.992c-.078.029-.094.18-.035.336s.17.26.249.231.094-.181.035-.337-.171-.259-.249-.23z" class="B C D E"/><path d="M224.897 465.809c.077-.029.189.073.248.23s.044.308-.034.337c-.016.005-2.306 1.186-2.32 1.191-.078.03-.19-.073-.249-.23s-.043-.307.035-.336c.015-.006 2.304-1.186 2.32-1.192" class="F"/><path d="M224.897 465.809c.077-.029.189.073.248.23s.044.308-.034.337c-.016.005-2.306 1.186-2.32 1.191-.078.03-.19-.073-.249-.23s-.043-.307.035-.336c.015-.006 2.304-1.186 2.32-1.192z" class="B C D E"/><path d="M224.897 465.809c-.078.029-.094.18-.035.337s.17.26.249.23.093-.18.034-.337-.171-.259-.248-.23" class="F"/><path d="M224.897 465.809c-.078.029-.094.18-.035.337s.17.26.249.23.093-.18.034-.337-.171-.259-.248-.23z" class="B C D E"/><path d="M224.531 465.625c.079-.029.189.074.248.231s.045.307-.034.336c-.015.006-2.305 1.186-2.32 1.192-.078.029-.189-.073-.248-.23s-.044-.308.034-.337c.016-.006 2.305-1.185 2.32-1.192" class="F"/><path d="M224.531 465.625c.079-.029.189.074.248.231s.045.307-.034.336c-.015.006-2.305 1.186-2.32 1.192-.078.029-.189-.073-.248-.23s-.044-.308.034-.337c.016-.006 2.305-1.185 2.32-1.192z" class="B C D E"/><path d="M224.531 465.625c-.077.03-.094.181-.035.339s.17.258.249.228.094-.18.034-.336-.169-.26-.248-.231" class="F"/><path d="M224.531 465.625c-.077.03-.094.181-.035.339s.17.258.249.228.094-.18.034-.336-.169-.26-.248-.231z" class="B C D E"/><path d="M224.164 465.443c.078-.03.189.073.248.23s.045.308-.034.337c-.015.005-2.304 1.186-2.32 1.192-.078.029-.19-.074-.248-.23s-.044-.309.034-.338c.015-.005 2.305-1.185 2.32-1.191" class="F"/><path d="M224.164 465.443c.078-.03.189.073.248.23s.045.308-.034.337c-.015.005-2.304 1.186-2.32 1.192-.078.029-.19-.074-.248-.23s-.044-.309.034-.338c.015-.005 2.305-1.185 2.32-1.191z" class="B C D E"/><path d="M224.164 465.443c-.078.029-.093.18-.035.337s.17.259.249.23.094-.18.034-.337-.17-.26-.248-.23" class="F"/><path d="M224.164 465.443c-.078.029-.093.18-.035.337s.17.259.249.23.094-.18.034-.337-.17-.26-.248-.23z" class="B C D E"/><path d="M223.799 465.26c.078-.03.19.073.248.23s.044.307-.034.337c-.015.006-2.305 1.186-2.32 1.191-.078.03-.189-.073-.249-.23s-.043-.308.034-.337c.016-.006 2.305-1.185 2.321-1.191" class="F"/><path d="M223.799 465.26c.078-.03.19.073.248.23s.044.307-.034.337c-.015.006-2.305 1.186-2.32 1.191-.078.03-.189-.073-.249-.23s-.043-.308.034-.337c.016-.006 2.305-1.185 2.321-1.191z" class="B C D E"/><path d="M223.799 465.26c-.078.029-.093.18-.035.337s.17.26.249.23.094-.181.034-.337-.17-.26-.248-.23" class="F"/><path d="M223.799 465.26c-.078.029-.093.18-.035.337s.17.26.249.23.094-.181.034-.337-.17-.26-.248-.23z" class="B C D E"/><path d="M223.432 465.077c.078-.029.189.074.248.23s.045.307-.034.337c-.016.006-2.305 1.186-2.32 1.191-.078.03-.19-.073-.248-.23s-.043-.307.034-.336c.016-.006 2.304-1.186 2.32-1.192" class="F"/><path d="M223.432 465.077c.078-.029.189.074.248.23s.045.307-.034.337c-.016.006-2.305 1.186-2.32 1.191-.078.03-.19-.073-.248-.23s-.043-.307.034-.336c.016-.006 2.304-1.186 2.32-1.192z" class="B C D E"/><path d="M223.432 465.077c-.078.029-.093.18-.034.337s.169.26.248.23.094-.181.034-.337-.17-.259-.248-.23" class="F"/><path d="M223.432 465.077c-.078.029-.093.18-.034.337s.169.26.248.23.094-.181.034-.337-.17-.259-.248-.23z" class="B C D E"/><path d="M223.066 464.894c.078-.029.189.073.248.23s.043.307-.034.337c-.015.005-2.305 1.186-2.32 1.191-.079.029-.19-.073-.249-.23s-.043-.307.035-.336c.016-.007 2.305-1.187 2.32-1.192" class="F"/><path d="M223.066 464.894c.078-.029.189.073.248.23s.043.307-.034.337c-.015.005-2.305 1.186-2.32 1.191-.079.029-.19-.073-.249-.23s-.043-.307.035-.336c.016-.007 2.305-1.187 2.32-1.192z" class="B C D E"/><path d="M223.066 464.894c-.079.029-.094.18-.035.337s.17.26.249.23.094-.181.034-.337-.17-.259-.248-.23" class="F"/><path d="M223.066 464.894c-.079.029-.094.18-.035.337s.17.26.249.23.094-.181.034-.337-.17-.259-.248-.23z" class="B C D E"/><path d="M222.7 464.71c.079-.029.189.073.248.23s.044.308-.033.337c-.016.006-2.306 1.186-2.321 1.191-.078.03-.19-.072-.249-.23s-.044-.307.035-.336c.015-.006 2.305-1.187 2.32-1.192" class="F"/><path d="M222.7 464.71c.079-.029.189.073.248.23s.044.308-.033.337c-.016.006-2.306 1.186-2.321 1.191-.078.03-.19-.072-.249-.23s-.044-.307.035-.336c.015-.006 2.305-1.187 2.32-1.192z" class="B C D E"/><path d="M222.7 464.71c-.078.029-.094.18-.035.337s.17.26.25.23.092-.18.033-.337-.169-.259-.248-.23" class="F"/><path d="M222.7 464.71c-.078.029-.094.18-.035.337s.17.26.25.23.092-.18.033-.337-.169-.259-.248-.23z" class="B C D E"/><path d="M222.335 464.527c.078-.029.188.073.248.231s.044.308-.035.337c-.015.005-2.305 1.186-2.319 1.191-.079.029-.191-.073-.249-.23s-.044-.308.034-.337c.016-.005 2.304-1.186 2.321-1.192" class="F"/><path d="M222.335 464.527c.078-.029.188.073.248.231s.044.308-.035.337c-.015.005-2.305 1.186-2.319 1.191-.079.029-.191-.073-.249-.23s-.044-.308.034-.337c.016-.005 2.304-1.186 2.321-1.192z" class="B C D E"/><path d="M222.335 464.527c-.079.03-.094.181-.036.337s.17.26.249.231.095-.181.035-.337-.17-.26-.248-.231" class="F"/><path d="M222.335 464.527c-.079.03-.094.181-.036.337s.17.26.249.231.095-.181.035-.337-.17-.26-.248-.231z" class="B C D E"/><path d="M221.968 464.344c.078-.029.19.073.249.231s.043.307-.035.336c-.015.005-2.305 1.186-2.32 1.191-.078.03-.19-.073-.249-.229s-.043-.308.036-.337c.014-.006 2.304-1.186 2.319-1.192" class="F"/><path d="M221.968 464.344c.078-.029.19.073.249.231s.043.307-.035.336c-.015.005-2.305 1.186-2.32 1.191-.078.03-.19-.073-.249-.229s-.043-.308.036-.337c.014-.006 2.304-1.186 2.319-1.192z" class="B C D E"/><path d="M221.968 464.344c-.078.03-.094.18-.035.337s.17.259.249.23.094-.18.035-.336-.171-.26-.249-.231" class="F"/><path d="M221.968 464.344c-.078.03-.094.18-.035.337s.17.259.249.23.094-.18.035-.336-.171-.26-.249-.231z" class="B C D E"/><path d="M221.602 464.161c.077-.029.189.073.248.23s.044.307-.035.337c-.015.006-2.305 1.186-2.319 1.191-.079.03-.19-.073-.249-.23s-.044-.307.035-.337c.015-.006 2.305-1.186 2.32-1.191" class="F"/><path d="M221.602 464.161c.077-.029.189.073.248.23s.044.307-.035.337c-.015.006-2.305 1.186-2.319 1.191-.079.03-.19-.073-.249-.23s-.044-.307.035-.337c.015-.006 2.305-1.186 2.32-1.191z" class="B C D E"/><path d="M221.602 464.161c-.079.029-.095.18-.035.336s.17.261.248.231.094-.18.035-.337-.171-.259-.248-.23" class="F"/><path d="M221.602 464.161c-.079.029-.095.18-.035.336s.17.261.248.231.094-.18.035-.337-.171-.259-.248-.23z" class="B C D E"/><path d="M221.235 463.978c.079-.029.189.074.248.23s.045.308-.034.338c-.015.005-2.305 1.185-2.32 1.19-.078.03-.19-.073-.248-.23s-.044-.307.034-.337c.015-.005 2.305-1.185 2.32-1.191" class="F"/><path d="M221.235 463.978c.079-.029.189.074.248.23s.045.308-.034.338c-.015.005-2.305 1.185-2.32 1.19-.078.03-.19-.073-.248-.23s-.044-.307.034-.337c.015-.005 2.305-1.185 2.32-1.191z" class="B C D E"/><path d="M221.235 463.978c-.078.029-.093.18-.034.337s.169.26.248.231.094-.181.034-.338-.169-.259-.248-.23" class="F"/><path d="M221.235 463.978c-.078.029-.093.18-.034.337s.169.26.248.231.094-.181.034-.338-.169-.259-.248-.23z" class="B C D E"/><path d="M226.858 468.878c.079-.029.19.074.249.23s.043.307-.035.337c-.015.006-2.305 1.186-2.319 1.191-.079.03-.191-.073-.249-.23s-.044-.307.034-.337c.016-.006 2.305-1.185 2.32-1.191" class="F"/><path d="M226.858 468.878c.079-.029.19.074.249.23s.043.307-.035.337c-.015.006-2.305 1.186-2.319 1.191-.079.03-.191-.073-.249-.23s-.044-.307.034-.337c.016-.006 2.305-1.185 2.32-1.191z" class="B C D E"/><path d="M226.858 468.878c-.078.029-.094.18-.034.337s.17.26.248.23.094-.18.035-.337-.17-.259-.249-.23" class="F"/><path d="M226.858 468.878c-.078.029-.094.18-.034.337s.17.26.248.23.094-.18.035-.337-.17-.259-.249-.23z" class="B C D E"/><path d="M226.949 469.473c.078-.029.19.074.25.231s.043.307-.036.336c-.015.006-2.304 1.186-2.32 1.192-.077.029-.189-.073-.248-.231s-.044-.307.035-.336c.014-.006 2.304-1.186 2.319-1.192" class="F"/><path d="M226.949 469.473c.078-.029.19.074.25.231s.043.307-.036.336c-.015.006-2.304 1.186-2.32 1.192-.077.029-.189-.073-.248-.231s-.044-.307.035-.336c.014-.006 2.304-1.186 2.319-1.192z" class="B C D E"/><path d="M226.949 469.473c-.077.03-.093.181-.035.338s.171.259.249.229.094-.18.036-.336-.172-.26-.25-.231" class="F"/><path d="M226.949 469.473c-.077.03-.093.181-.035.338s.171.259.249.229.094-.18.036-.336-.172-.26-.25-.231z" class="B C D E"/><g clip-path="url(#I)"><path d="M223.923 469.332c-.196-.517-.483-.936-.781-1.19h0l-14.17-6.963v-.534l2.146-1.067 14.193 6.978c.411.153.859.685 1.129 1.403h0c.363.964.266 1.891-.215 2.073h0c-.035.014-2.177 1.076-2.215 1.079h0c.199-.388.177-1.073-.087-1.779" fill="url(#J)"/></g><path d="M223.143 468.143c.298.252.585.673.78 1.189.266.705.285 1.391.087 1.781.038-.006 2.179-1.067 2.215-1.08.481-.182.578-1.111.214-2.075-.268-.715-.718-1.249-1.127-1.402l-14.192-6.978-2.149 1.067v.534z" class="B C D G"/><g clip-path="url(#K)"><path d="M223.923 469.332c-.196-.517-.483-.936-.781-1.19h0l-14.17-6.963 2.146-1.068 14.085 6.922h0l.085.064c.302.251.593.676.788 1.198h0c.364.963.27 1.894-.215 2.075h0l-1.741.715h0c-.035.014-.072.023-.11.026h0c.199-.388.177-1.073-.087-1.779" fill="url(#L)"/></g><g class="B C D G"><path d="M211.119 460.111l-2.147 1.069 14.17 6.963c.299.252.586.673.781 1.19.265.704.285 1.391.087 1.779a.52.52 0 0 0 .11-.026l1.742-.716c.483-.182.578-1.111.215-2.074-.197-.522-.487-.947-.789-1.198l-.084-.065c-.113-.082-14.085-6.922-14.085-6.922z"/><path d="M211.119 460.111v-.507"/></g><path d="M225.995 468.381c.079-.029.19.073.248.231s.045.307-.034.336c-.015.006-2.305 1.186-2.32 1.192-.078.029-.19-.074-.249-.231s-.043-.307.035-.336c.016-.006 2.305-1.186 2.32-1.192" class="F"/><path d="M225.995 468.381c.079-.029.19.073.248.231s.045.307-.034.336c-.015.006-2.305 1.186-2.32 1.192-.078.029-.19-.074-.249-.231s-.043-.307.035-.336c.016-.006 2.305-1.186 2.32-1.192z" class="B C D E"/><path d="M225.995 468.381c-.078.03-.094.181-.035.337s.171.26.249.23.094-.18.034-.336-.169-.26-.248-.231" class="F"/><path d="M225.995 468.381c-.078.03-.094.181-.035.337s.171.26.249.23.094-.18.034-.336-.169-.26-.248-.231z" class="B C D E"/><path d="M226.087 468.977c.078-.029.19.073.248.23s.045.308-.034.337c-.015.006-2.305 1.186-2.32 1.191-.077.03-.19-.073-.248-.23s-.044-.307.034-.336c.015-.006 2.305-1.187 2.32-1.192" class="F"/><path d="M226.087 468.977c.078-.029.19.073.248.23s.045.308-.034.337c-.015.006-2.305 1.186-2.32 1.191-.077.03-.19-.073-.248-.23s-.044-.307.034-.336c.015-.006 2.305-1.187 2.32-1.192z" class="B C D E"/><path d="M226.087 468.977c-.079.029-.093.18-.035.337s.171.26.249.23.094-.18.034-.337-.17-.259-.248-.23" class="F"/><path d="M226.087 468.977c-.079.029-.093.18-.035.337s.171.26.249.23.094-.18.034-.337-.17-.259-.248-.23z" class="B C D E"/><path d="M225.767 467.823c.078-.029.189.073.248.23s.044.308-.034.338c-.015.005-2.306 1.185-2.32 1.191-.078.029-.19-.073-.248-.231s-.045-.307.034-.336c.015-.006 2.305-1.186 2.32-1.192" class="F"/><path d="M225.767 467.823c.078-.029.189.073.248.23s.044.308-.034.338c-.015.005-2.306 1.185-2.32 1.191-.078.029-.19-.073-.248-.231s-.045-.307.034-.336c.015-.006 2.305-1.186 2.32-1.192z" class="B C D E"/><path d="M225.767 467.823c-.079.029-.094.18-.035.337s.17.26.249.231.094-.181.034-.338-.17-.259-.248-.23" class="F"/><path d="M225.767 467.823c-.079.029-.094.18-.035.337s.17.26.249.231.094-.181.034-.338-.17-.259-.248-.23z" class="B C D E"/><path d="M225.455 467.356c.079-.03.19.074.25.23s.042.307-.036.337c-.015.005-2.304 1.186-2.32 1.191-.078.03-.19-.073-.248-.23s-.044-.307.035-.337c.014-.005 2.304-1.185 2.319-1.191" class="F"/><path d="M225.455 467.356c.079-.03.19.074.25.23s.042.307-.036.337c-.015.005-2.304 1.186-2.32 1.191-.078.03-.19-.073-.248-.23s-.044-.307.035-.337c.014-.005 2.304-1.185 2.319-1.191z" class="B C D E"/><path d="M225.455 467.356c-.077.029-.094.18-.035.337s.17.26.249.23.094-.181.036-.337-.171-.26-.25-.23" class="F"/><path d="M225.455 467.356c-.077.029-.094.18-.035.337s.17.26.249.23.094-.181.036-.337-.171-.26-.25-.23z" class="B C D E"/><path d="M225.08 467.045c.078-.029.19.073.249.23s.043.307-.035.337c-.015.005-2.305 1.186-2.32 1.191-.078.03-.19-.073-.248-.23s-.044-.307.035-.337c.014-.006 2.304-1.185 2.319-1.191" class="F"/><path d="M225.08 467.045c.078-.029.19.073.249.23s.043.307-.035.337c-.015.005-2.305 1.186-2.32 1.191-.078.03-.19-.073-.248-.23s-.044-.307.035-.337c.014-.006 2.304-1.185 2.319-1.191z" class="B C D E"/><path d="M225.08 467.045c-.078.029-.094.18-.035.336s.171.26.249.231.094-.181.035-.337-.171-.259-.249-.23" class="F"/><path d="M225.08 467.045c-.078.029-.094.18-.035.336s.171.26.249.231.094-.181.035-.337-.171-.259-.249-.23z" class="B C D E"/><path d="M224.715 466.816c.077-.03.189.073.248.23s.043.307-.035.337c-.015.006-2.304 1.186-2.319 1.191-.078.03-.19-.073-.249-.23s-.044-.307.035-.337c.014-.005 2.305-1.185 2.32-1.191" class="F"/><path d="M224.715 466.816c.077-.03.189.073.248.23s.043.307-.035.337c-.015.006-2.304 1.186-2.319 1.191-.078.03-.19-.073-.249-.23s-.044-.307.035-.337c.014-.005 2.305-1.185 2.32-1.191z" class="B C D E"/><path d="M224.715 466.816c-.079.029-.095.18-.035.337s.17.26.248.23.094-.181.035-.337-.171-.26-.248-.23" class="F"/><path d="M224.715 466.816c-.079.029-.095.18-.035.337s.17.26.248.23.094-.181.035-.337-.171-.26-.248-.23z" class="B C D E"/><path d="M224.348 466.633c.079-.029.19.074.248.23s.045.308-.034.337c-.015.006-2.305 1.186-2.32 1.191-.078.03-.19-.073-.248-.23s-.044-.307.034-.336c.016-.006 2.305-1.186 2.32-1.192" class="F"/><path d="M224.348 466.633c.079-.029.19.074.248.23s.045.308-.034.337c-.015.006-2.305 1.186-2.32 1.191-.078.03-.19-.073-.248-.23s-.044-.307.034-.336c.016-.006 2.305-1.186 2.32-1.192z" class="B C D E"/><path d="M224.348 466.633c-.078.029-.093.18-.035.337s.17.26.249.23.094-.181.034-.337-.169-.259-.248-.23" class="F"/><path d="M224.348 466.633c-.078.029-.093.18-.035.337s.17.26.249.23.094-.181.034-.337-.169-.259-.248-.23z" class="B C D E"/><path d="M223.982 466.449c.078-.029.189.074.248.231s.044.307-.034.336c-.015.006-2.305 1.186-2.32 1.191-.078.03-.189-.073-.249-.229s-.043-.308.034-.337c.017-.006 2.306-1.186 2.321-1.192" class="F"/><path d="M223.982 466.449c.078-.029.189.074.248.231s.044.307-.034.336c-.015.006-2.305 1.186-2.32 1.191-.078.03-.189-.073-.249-.229s-.043-.308.034-.337c.017-.006 2.306-1.186 2.321-1.192z" class="B C D E"/><path d="M223.982 466.449c-.079.029-.093.18-.034.337s.169.26.248.23.094-.18.034-.336-.17-.26-.248-.231" class="F"/><path d="M223.982 466.449c-.079.029-.093.18-.034.337s.169.26.248.23.094-.18.034-.336-.17-.26-.248-.231z" class="B C D E"/><path d="M223.615 466.267c.079-.029.19.073.248.23s.044.308-.034.337c-.015.006-2.305 1.186-2.32 1.192-.078.029-.19-.073-.248-.231s-.045-.307.034-.336c.015-.006 2.305-1.187 2.32-1.192" class="F"/><path d="M223.615 466.267c.079-.029.19.073.248.23s.044.308-.034.337c-.015.006-2.305 1.186-2.32 1.192-.078.029-.19-.073-.248-.231s-.045-.307.034-.336c.015-.006 2.305-1.187 2.32-1.192z" class="B C D E"/><path d="M223.615 466.267c-.077.029-.093.18-.035.337s.171.26.249.23.094-.18.034-.337-.169-.259-.248-.23" class="F"/><path d="M223.615 466.267c-.077.029-.093.18-.035.337s.171.26.249.23.094-.18.034-.337-.169-.259-.248-.23z" class="B C D E"/><path d="M223.25 466.083c.077-.029.189.073.248.231s.044.307-.035.336c-.015.006-2.305 1.187-2.319 1.192-.078.029-.19-.074-.249-.23s-.043-.308.035-.337c.014-.006 2.305-1.186 2.32-1.192" class="F"/><path d="M223.25 466.083c.077-.029.189.073.248.231s.044.307-.035.336c-.015.006-2.305 1.187-2.319 1.192-.078.029-.19-.074-.249-.23s-.043-.308.035-.337c.014-.006 2.305-1.186 2.32-1.192z" class="B C D E"/><path d="M223.25 466.083c-.078.03-.094.181-.035.337s.17.26.248.23.095-.18.035-.336-.171-.26-.248-.231" class="F"/><path d="M223.25 466.083c-.078.03-.094.181-.035.337s.17.26.248.23.095-.18.035-.336-.171-.26-.248-.231z" class="B C D E"/><path d="M222.883 465.901c.079-.03.19.073.248.23s.045.307-.035.336c-.014.006-2.304 1.187-2.319 1.192-.078.03-.19-.073-.249-.23s-.043-.307.035-.337c.016-.006 2.305-1.185 2.32-1.191" class="F"/><path d="M222.883 465.901c.079-.03.19.073.248.23s.045.307-.035.336c-.014.006-2.304 1.187-2.319 1.192-.078.03-.19-.073-.249-.23s-.043-.307.035-.337c.016-.006 2.305-1.185 2.32-1.191z" class="B C D E"/><path d="M222.883 465.901c-.078.029-.093.18-.035.337s.17.259.248.229.095-.18.035-.336-.169-.26-.248-.23" class="F"/><path d="M222.883 465.901c-.078.029-.093.18-.035.337s.17.259.248.229.095-.18.035-.336-.169-.26-.248-.23z" class="B C D E"/><path d="M222.517 465.718c.077-.029.189.073.248.23s.044.307-.034.337c-.016.005-2.305 1.186-2.32 1.191-.079.03-.19-.073-.249-.23s-.044-.307.035-.337c.015-.006 2.305-1.185 2.32-1.191" class="F"/><path d="M222.517 465.718c.077-.029.189.073.248.23s.044.307-.034.337c-.016.005-2.305 1.186-2.32 1.191-.079.03-.19-.073-.249-.23s-.044-.307.035-.337c.015-.006 2.305-1.185 2.32-1.191z" class="B C D E"/><path d="M222.517 465.718c-.078.029-.094.18-.035.337s.17.259.249.23.093-.18.034-.337-.171-.259-.248-.23" class="F"/><path d="M222.517 465.718c-.078.029-.094.18-.035.337s.17.259.249.23.093-.18.034-.337-.171-.259-.248-.23z" class="B C D E"/><path d="M222.151 465.534c.078-.029.189.073.248.23s.044.309-.034.338c-.015.005-2.306 1.185-2.32 1.19-.079.03-.19-.073-.249-.229s-.044-.308.035-.337c.014-.006 2.304-1.186 2.32-1.192" class="F"/><path d="M222.151 465.534c.078-.029.189.073.248.23s.044.309-.034.338c-.015.005-2.306 1.185-2.32 1.19-.079.03-.19-.073-.249-.229s-.044-.308.035-.337c.014-.006 2.304-1.186 2.32-1.192z" class="B C D E"/><path d="M222.151 465.534c-.079.029-.094.18-.035.337s.17.26.249.231.094-.181.034-.338-.17-.259-.248-.23" class="F"/><path d="M222.151 465.534c-.079.029-.094.18-.035.337s.17.26.249.231.094-.181.034-.338-.17-.259-.248-.23z" class="B C D E"/><path d="M221.784 465.351c.078-.029.189.073.249.23s.043.307-.035.337c-.015.006-2.305 1.186-2.319 1.191-.078.03-.19-.073-.249-.23s-.044-.307.034-.337c.015-.006 2.305-1.185 2.32-1.191" class="F"/><path d="M221.784 465.351c.078-.029.189.073.249.23s.043.307-.035.337c-.015.006-2.305 1.186-2.319 1.191-.078.03-.19-.073-.249-.23s-.044-.307.034-.337c.015-.006 2.305-1.185 2.32-1.191z" class="B C D E"/><path d="M221.784 465.351c-.078.029-.093.18-.034.337s.169.26.248.23.094-.181.035-.337-.171-.259-.249-.23" class="F"/><path d="M221.784 465.351c-.078.029-.093.18-.034.337s.169.26.248.23.094-.181.035-.337-.171-.259-.249-.23z" class="B C D E"/><path d="M221.418 465.168c.079-.029.19.074.25.23s.043.308-.036.337c-.015.006-2.305 1.186-2.32 1.192-.078.029-.19-.074-.248-.231s-.044-.307.034-.336c.016-.005 2.305-1.186 2.32-1.192" class="F"/><path d="M221.418 465.168c.079-.029.19.074.25.23s.043.308-.036.337c-.015.006-2.305 1.186-2.32 1.192-.078.029-.19-.074-.248-.231s-.044-.307.034-.336c.016-.005 2.305-1.186 2.32-1.192z" class="B C D E"/><path d="M221.418 465.168c-.077.029-.093.18-.035.337s.171.26.249.23.094-.18.036-.337-.171-.259-.25-.23" class="F"/><path d="M221.418 465.168c-.077.029-.093.18-.035.337s.171.26.249.23.094-.18.036-.337-.171-.259-.25-.23z" class="B C D E"/><path d="M221.053 464.985c.077-.03.189.073.248.23s.043.307-.034.337c-.017.005-2.306 1.186-2.32 1.191-.079.03-.19-.073-.25-.229s-.043-.309.035-.338c.015-.005 2.305-1.185 2.321-1.191" class="F"/><path d="M221.053 464.985c.077-.03.189.073.248.23s.043.307-.034.337c-.017.005-2.306 1.186-2.32 1.191-.079.03-.19-.073-.25-.229s-.043-.309.035-.338c.015-.005 2.305-1.185 2.321-1.191z" class="B C D E"/><path d="M221.053 464.985c-.079.029-.094.18-.036.337s.171.259.25.23.092-.18.034-.337-.171-.26-.248-.23" class="F"/><path d="M221.053 464.985c-.079.029-.094.18-.036.337s.171.259.25.23.092-.18.034-.337-.171-.26-.248-.23z" class="B C D E"/><path d="M220.686 464.802c.078-.029.189.074.248.231s.044.307-.034.336l-2.32 1.192c-.078.029-.189-.074-.248-.23s-.044-.308.034-.338c.015-.005 2.304-1.185 2.32-1.191" class="F"/><path d="M220.686 464.802c.078-.029.189.074.248.231s.044.307-.034.336l-2.32 1.192c-.078.029-.189-.074-.248-.23s-.044-.308.034-.338c.015-.005 2.304-1.185 2.32-1.191z" class="B C D E"/><path d="M220.686 464.802c-.078.029-.094.181-.035.337s.17.26.249.23.094-.18.034-.336-.17-.26-.248-.231" class="F"/><path d="M220.686 464.802c-.078.029-.094.181-.035.337s.17.26.249.23.094-.18.034-.336-.17-.26-.248-.231z" class="B C D E"/><g clip-path="url(#M)"><path d="M203.9 458.708v-.532l2.148-1.069 4.124 1.941v.533l-2.15 1.069z" fill="url(#N)"/></g><path d="M210.172 459.58l-4.124-1.939-2.147 1.068 4.123 1.94z" class="H"/><path d="M206.048 457.641v-.507" class="B C D I"/><g clip-path="url(#O)"><path d="M198.545 456.261v-.532l2.149-1.071 4.121 1.942v.533l-2.148 1.068z" fill="url(#P)"/></g><path d="M204.815 457.134l-4.122-1.942-2.148 1.07 4.123 1.939z" class="H"/><g class="B C D I"><path d="M204.815 457.134l-4.122-1.942-2.148 1.07 4.123 1.939z"/><path d="M200.693 455.192v-.506"/></g><path d="M226.604 477.001c.077-.029.185.072.243.224s.042.3-.034.329c-.015.006-.918.458-.933.464-.075.029-.184-.072-.242-.224s-.042-.3.035-.329c.015-.005.917-.459.931-.464" class="F"/><path d="M226.604 477.001c.077-.029.185.072.243.224s.042.3-.034.329c-.015.006-.918.458-.933.464-.075.029-.184-.072-.242-.224s-.042-.3.035-.329c.015-.005.917-.459.931-.464z" class="B C D E"/><path d="M226.604 477.001c-.076.029-.091.176-.034.329s.166.252.243.224.091-.176.034-.329-.166-.253-.243-.224" class="F"/><path d="M226.604 477.001c-.076.029-.091.176-.034.329s.166.252.243.224.091-.176.034-.329-.166-.253-.243-.224z" class="B C D E"/><path d="M229.453 475.586c0 .526-.756.952-1.69.952s-1.69-.426-1.69-.952c0-.884.756-1.497 1.69-1.497s1.69.668 1.69 1.497" class="F"/><path d="M229.453 475.586c0 .526-.756.952-1.69.952s-1.69-.426-1.69-.952c0-.884.756-1.497 1.69-1.497s1.69.668 1.69 1.497z" class="B C D E"/><use xlink:href="#Y" class="F"/><use xlink:href="#Y" class="B C D E"/><path d="M226.138 477.371c0-.449.728-.812 1.625-.812s1.625.363 1.625.812-.728.813-1.625.813-1.625-.365-1.625-.813" class="F"/><path d="M226.138 477.371c0-.449.728-.812 1.625-.812s1.625.363 1.625.812-.728.813-1.625.813-1.625-.365-1.625-.813z" class="B C D E"/><use xlink:href="#Z" class="F"/><use xlink:href="#Z" class="B C D E"/><path d="M226.301 477.801c0-.404.654-.731 1.462-.731s1.462.327 1.462.731-.655.731-1.462.731-1.462-.326-1.462-.731" class="F"/><path d="M226.301 477.801c0-.404.654-.731 1.462-.731s1.462.327 1.462.731-.655.731-1.462.731-1.462-.326-1.462-.731z" class="B C D E"/><g clip-path="url(#Q)"><path d="M226.542 477.835c0-.303.547-.551 1.221-.551h0c.672 0 1.22.248 1.22.551h0c0 .304-.548.552-1.22.552h0c-.674 0-1.221-.248-1.221-.552" fill="url(#R)"/></g><path d="M226.542 477.835c0-.304.547-.55 1.22-.55s1.222.246 1.222.55-.546.551-1.222.551-1.22-.246-1.22-.551z" class="B C D E"/><path d="M227.763 478.047c-.543 0-1.003-.159-1.161-.381-.039.054-.06.11-.06.17 0 .304.547.551 1.221.551s1.221-.247 1.221-.551a.28.28 0 0 0-.06-.17c-.158.222-.617.381-1.161.381" class="F"/><path d="M227.763 478.047c-.543 0-1.003-.159-1.161-.381-.039.054-.06.11-.06.17 0 .304.547.551 1.221.551s1.221-.247 1.221-.551a.28.28 0 0 0-.06-.17c-.158.222-.617.381-1.161.381z" class="B C D E"/><path d="M229.918 475.376c.077-.029.185.072.242.224s.042.3-.034.329c-.015.006-.916.458-.932.464-.075.028-.184-.072-.241-.224s-.043-.3.034-.329c.014-.005.916-.458.931-.464" class="F"/><path d="M229.918 475.376c.077-.029.185.072.242.224s.042.3-.034.329c-.015.006-.916.458-.932.464-.075.028-.184-.072-.241-.224s-.043-.3.034-.329c.014-.005.916-.458.931-.464z" class="B C D E"/><path d="M229.918 475.376c-.077.029-.092.176-.035.328s.167.254.243.225.091-.176.034-.329-.165-.253-.242-.224" class="F"/><path d="M229.918 475.376c-.077.029-.092.176-.035.328s.167.254.243.225.091-.176.034-.329-.165-.253-.242-.224z" class="B C D E"/><path d="M220.686 473.396l.559.279 2.498-1.248v-.749l-.56-.281-2.497 1.25z" class="F"/><path d="M220.686 473.396l.559.279 2.498-1.248v-.749l-.56-.281-2.497 1.25z" class="B C D E"/><path d="M220.686 473.396l2.497-1.25.56.281-2.498 1.248z" class="F"/><g class="B C D E"><path d="M220.686 473.396l2.497-1.25.56.281-2.498 1.248z"/><path d="M223.183 472.147v-.749"/></g><path d="M220.686 474.333l.559.28 2.498-1.249v-.748l-.56-.281-2.497 1.249z" class="F"/><path d="M220.686 474.333l.559.28 2.498-1.249v-.748l-.56-.281-2.497 1.249z" class="B C D E"/><path d="M220.686 474.333l2.497-1.249.56.28-2.498 1.249z" class="F"/><g class="B C D E"><path d="M220.686 474.333l2.497-1.249.56.28-2.498 1.249z"/><path d="M223.183 473.084v-.749"/></g><g clip-path="url(#S)"><path d="M220.889 474.332l2.274-1.135.357.177-2.276 1.137z" fill="url(#T)"/></g><path d="M220.889 474.333l2.275-1.137.355.178-2.274 1.137z" class="B C D E"/><path d="M223.666 471.905l.561.281 2.498-1.25v-.748l-.56-.282-2.499 1.25z" class="F"/><path d="M223.666 471.905l.561.281 2.498-1.25v-.748l-.56-.282-2.499 1.25z" class="B C D E"/><path d="M223.666 471.905l2.499-1.25.56.281-2.498 1.25z" class="F"/><g class="B C D E"><path d="M223.666 471.905l2.499-1.25.56.281-2.498 1.25z"/><path d="M226.165 470.656v-.749"/></g><path d="M223.666 472.841l.561.281 2.498-1.25v-.748l-.56-.28-2.499 1.249z" class="F"/><path d="M223.666 472.841l.561.281 2.498-1.25v-.748l-.56-.28-2.499 1.249z" class="B C D E"/><path d="M223.666 472.841l2.499-1.249.56.28-2.498 1.25z" class="F"/><g class="B C D E"><path d="M223.666 472.841l2.499-1.249.56.28-2.498 1.25z"/><path d="M226.165 471.593v-.749"/></g><g clip-path="url(#U)"><path d="M223.871 472.842l2.274-1.138.354.18-2.272 1.135z" fill="url(#V)"/></g><path d="M223.871 472.842l2.275-1.137.355.178-2.274 1.137z" class="B C D E"/><path d="M221.564 476.469l1.133.567 5.053-2.527v-1.514l-1.133-.567-5.053 2.527z" class="F"/><path d="M221.564 476.469l1.133.567 5.053-2.527v-1.514l-1.133-.567-5.053 2.527z" class="B C D E"/><path d="M221.564 476.469l5.053-2.527 1.133.567-5.053 2.527z" class="F"/><g class="B C D E"><path d="M221.564 476.469l5.053-2.527 1.133.567-5.053 2.527z"/><path d="M226.617 473.942v-1.515"/></g><g clip-path="url(#W)"><path d="M221.979 476.471l4.599-2.301.719.36-4.6 2.3z" fill="url(#X)"/></g><path d="M221.977 476.47l4.6-2.3.719.36-4.599 2.299z" class="B C D E"/><path d="M205.455 465.445l5.897-2.948v-1.287l-.247-.124-5.897 2.949v1.286z" class="F"/><path d="M205.455 465.445l5.897-2.948v-1.287l-.247-.124-5.897 2.949v1.286z" class="B C D E"/><path d="M205.208 464.035l5.896-2.948v1.287l-5.896 2.948z" class="F"/><g class="B C D E"><path d="M205.208 464.035l5.896-2.948v1.287l-5.896 2.948z"/><path d="M211.352 462.497l-.247-.124"/></g><path d="M204.685 466.372l.817.409 6.576-3.288V462.4l-.818-.409-6.575 3.289z" class="F"/><path d="M204.685 466.372l.817.409 6.576-3.288V462.4l-.818-.409-6.575 3.289z" class="B C D E"/><path d="M204.685 466.372l6.575-3.288.818.409-6.576 3.288z" class="F"/><g class="B C D E"><path d="M204.685 466.372l6.575-3.288.818.409-6.576 3.288z"/><path d="M211.26 463.084v-1.093"/></g></g></svg>