<svg xmlns="http://www.w3.org/2000/svg" xmlns:xlink="http://www.w3.org/1999/xlink" width="100%" height="100%" viewBox='0 0 38.935 28.965' xmlns:v="https://vecta.io/nano"><style><![CDATA[.B{fill:none}.C{stroke:#696b6d}.D{stroke-width:.23}.E{stroke-linejoin:round}]]></style><defs><clipPath id="A"><path d="M204.236 378.906v-1.697l13.138-6.183 6.848 3.403v1.701l-13.143 6.182z"/></clipPath><linearGradient x1="208.729" y1="376.668" x2="224.222" y2="376.668" spreadMethod="pad" id="B" xlink:href="#W"><stop offset="0" stop-color="#c7c8ca"/><stop offset=".224" stop-color="#c7c8ca"/><stop offset=".371" stop-color="#fff"/><stop offset=".556" stop-color="#77797b"/><stop offset=".696" stop-color="#696b6d"/><stop offset=".91" stop-color="#c7c8ca"/><stop offset="1" stop-color="#fff"/></linearGradient><clipPath id="C"><path d="M204.236 378.906l13.138-6.183 6.848 3.407-13.143 6.182z"/></clipPath><linearGradient x1="208.729" y1="377.518" x2="224.222" y2="377.518" spreadMethod="pad" id="D" xlink:href="#W"><stop offset="0" stop-color="#c7c8ca"/><stop offset=".224" stop-color="#c7c8ca"/><stop offset=".371" stop-color="#fff"/><stop offset=".556" stop-color="#77797b"/><stop offset=".696" stop-color="#696b6d"/><stop offset=".91" stop-color="#c7c8ca"/><stop offset="1" stop-color="#fff"/></linearGradient><clipPath id="E"><path d="M204.236 380.671v-1.698l13.138-6.184 6.848 3.405v1.701l-13.143 6.181z"/></clipPath><linearGradient x1="208.729" y1="378.432" x2="224.222" y2="378.432" spreadMethod="pad" id="F" xlink:href="#W"><stop offset="0" stop-color="#c7c8ca"/><stop offset=".224" stop-color="#c7c8ca"/><stop offset=".371" stop-color="#fff"/><stop offset=".556" stop-color="#77797b"/><stop offset=".696" stop-color="#696b6d"/><stop offset=".91" stop-color="#c7c8ca"/><stop offset="1" stop-color="#fff"/></linearGradient><clipPath id="G"><path d="M204.236 380.671l13.138-6.184 6.848 3.408-13.143 6.181z"/></clipPath><linearGradient x1="208.729" y1="379.282" x2="224.222" y2="379.282" spreadMethod="pad" id="H" xlink:href="#W"><stop offset="0" stop-color="#c7c8ca"/><stop offset=".224" stop-color="#c7c8ca"/><stop offset=".371" stop-color="#fff"/><stop offset=".556" stop-color="#77797b"/><stop offset=".696" stop-color="#696b6d"/><stop offset=".91" stop-color="#c7c8ca"/><stop offset="1" stop-color="#fff"/></linearGradient><clipPath id="I"><path d="M204.236 382.423v-1.7l13.138-6.184 6.848 3.403v1.701l-13.143 6.183z"/></clipPath><linearGradient x1="208.729" y1="380.182" x2="224.222" y2="380.182" spreadMethod="pad" id="J" xlink:href="#W"><stop offset="0" stop-color="#c7c8ca"/><stop offset=".224" stop-color="#c7c8ca"/><stop offset=".371" stop-color="#fff"/><stop offset=".556" stop-color="#77797b"/><stop offset=".696" stop-color="#696b6d"/><stop offset=".91" stop-color="#c7c8ca"/><stop offset="1" stop-color="#fff"/></linearGradient><clipPath id="K"><path d="M204.236 382.423l13.138-6.185 6.848 3.405-13.143 6.183z"/></clipPath><linearGradient x1="208.729" y1="381.032" x2="224.222" y2="381.032" spreadMethod="pad" id="L" xlink:href="#W"><stop offset="0" stop-color="#c7c8ca"/><stop offset=".224" stop-color="#c7c8ca"/><stop offset=".371" stop-color="#fff"/><stop offset=".556" stop-color="#77797b"/><stop offset=".696" stop-color="#696b6d"/><stop offset=".91" stop-color="#c7c8ca"/><stop offset="1" stop-color="#fff"/></linearGradient><clipPath id="M"><path d="M204.236 384.187v-1.7l13.138-6.184 6.848 3.403v1.701l-13.143 6.183z"/></clipPath><linearGradient x1="208.729" y1="381.947" x2="224.222" y2="381.947" spreadMethod="pad" id="N" xlink:href="#W"><stop offset="0" stop-color="#c7c8ca"/><stop offset=".224" stop-color="#c7c8ca"/><stop offset=".371" stop-color="#fff"/><stop offset=".556" stop-color="#77797b"/><stop offset=".696" stop-color="#696b6d"/><stop offset=".91" stop-color="#c7c8ca"/><stop offset="1" stop-color="#fff"/></linearGradient><clipPath id="O"><path d="M204.236 384.187l13.138-6.184 6.848 3.404-13.143 6.183z"/></clipPath><linearGradient x1="208.729" y1="382.796" x2="224.222" y2="382.796" spreadMethod="pad" id="P" xlink:href="#W"><stop offset="0" stop-color="#c7c8ca"/><stop offset=".224" stop-color="#c7c8ca"/><stop offset=".371" stop-color="#fff"/><stop offset=".556" stop-color="#77797b"/><stop offset=".696" stop-color="#696b6d"/><stop offset=".91" stop-color="#c7c8ca"/><stop offset="1" stop-color="#fff"/></linearGradient><clipPath id="Q"><path d="M204.236 385.972v-1.697l13.138-6.185 6.848 3.404v1.702l-13.143 6.181z"/></clipPath><linearGradient x1="208.729" y1="383.733" x2="224.222" y2="383.733" spreadMethod="pad" id="R" xlink:href="#W"><stop offset="0" stop-color="#c7c8ca"/><stop offset=".224" stop-color="#c7c8ca"/><stop offset=".371" stop-color="#fff"/><stop offset=".556" stop-color="#77797b"/><stop offset=".696" stop-color="#696b6d"/><stop offset=".91" stop-color="#c7c8ca"/><stop offset="1" stop-color="#fff"/></linearGradient><clipPath id="S"><path d="M204.236 385.972l13.138-6.184 6.848 3.408-13.143 6.181z"/></clipPath><linearGradient x1="208.729" y1="384.583" x2="224.222" y2="384.583" spreadMethod="pad" id="T" xlink:href="#W"><stop offset="0" stop-color="#c7c8ca"/><stop offset=".224" stop-color="#c7c8ca"/><stop offset=".371" stop-color="#fff"/><stop offset=".556" stop-color="#77797b"/><stop offset=".696" stop-color="#696b6d"/><stop offset=".91" stop-color="#c7c8ca"/><stop offset="1" stop-color="#fff"/></linearGradient><clipPath id="U"><path d="M204.236 387.735v-1.696l13.138-6.185 6.848 3.404v1.701l-13.143 6.182z"/></clipPath><linearGradient x1="208.729" y1="385.497" x2="224.222" y2="385.497" spreadMethod="pad" id="V" xlink:href="#W"><stop offset="0" stop-color="#c7c8ca"/><stop offset=".224" stop-color="#c7c8ca"/><stop offset=".371" stop-color="#fff"/><stop offset=".556" stop-color="#77797b"/><stop offset=".696" stop-color="#696b6d"/><stop offset=".91" stop-color="#c7c8ca"/><stop offset="1" stop-color="#fff"/></linearGradient><linearGradient id="W" gradientUnits="userSpaceOnUse"/></defs><g transform="matrix(1.333333 0 0 -1.333333 -266.84533 522.124)"><path d="M229.335 377.169c0-4.032-6.537-7.3-14.6-7.3s-14.601 3.268-14.601 7.3 6.538 7.301 14.601 7.301 14.6-3.267 14.6-7.301" fill="#939598"/><g clip-path="url(#A)"><path d="M204.236 378.906v-1.697l13.138-6.183 6.848 3.403v1.701l-13.143 6.182z" fill="url(#B)"/></g><path d="M204.235 378.907l6.843 3.405 13.144-6.184v-1.7l-6.846-3.403-13.141 6.184z" class="B C D E"/><g clip-path="url(#C)"><path d="M204.236 378.906l13.138-6.183 6.848 3.407-13.143 6.182z" fill="url(#D)"/></g><g class="B C D E"><path d="M204.235 378.907l13.141-6.184 6.846 3.405-13.144 6.184z"/><path d="M217.376 372.723v-1.616"/></g><g clip-path="url(#E)"><path d="M204.236 380.671v-1.698l13.138-6.184 6.848 3.405v1.701l-13.143 6.181z" fill="url(#F)"/></g><path d="M204.235 380.671l6.843 3.404 13.144-6.181v-1.701l-6.846-3.405-13.141 6.184z" class="B C D E"/><g clip-path="url(#G)"><path d="M204.236 380.671l13.138-6.184 6.848 3.408-13.143 6.181z" fill="url(#H)"/></g><g class="B C D E"><path d="M204.235 380.671l13.141-6.184 6.846 3.407-13.144 6.181z"/><path d="M217.376 374.487v-1.617"/></g><g clip-path="url(#I)"><path d="M204.236 382.423v-1.7l13.138-6.184 6.848 3.403v1.701l-13.143 6.183z" fill="url(#J)"/></g><path d="M204.235 382.422l6.843 3.404 13.144-6.183v-1.7l-6.846-3.404-13.141 6.184z" class="B C D E"/><g clip-path="url(#K)"><path d="M204.236 382.423l13.138-6.185 6.848 3.405-13.143 6.183z" fill="url(#L)"/></g><g class="B C D E"><path d="M204.235 382.422l13.141-6.184 6.846 3.405-13.144 6.183z"/><path d="M217.376 376.238v-1.617"/></g><g clip-path="url(#M)"><path d="M204.236 384.187v-1.7l13.138-6.184 6.848 3.403v1.701l-13.143 6.183z" fill="url(#N)"/></g><path d="M204.235 384.186l6.843 3.404 13.144-6.182v-1.701l-6.846-3.404-13.141 6.184z" class="B C D E"/><g clip-path="url(#O)"><path d="M204.236 384.187l13.138-6.184 6.848 3.404-13.143 6.183z" fill="url(#P)"/></g><g class="B C D E"><path d="M204.235 384.186l13.141-6.183 6.846 3.405-13.144 6.182z"/><path d="M217.376 378.003v-1.616"/></g><g clip-path="url(#Q)"><path d="M204.236 385.972v-1.697l13.138-6.185 6.848 3.404v1.702l-13.143 6.181z" fill="url(#R)"/></g><path d="M204.235 385.972l6.843 3.405 13.144-6.182v-1.701l-6.846-3.404-13.141 6.185z" class="B C D E"/><g clip-path="url(#S)"><path d="M204.236 385.972l13.138-6.184 6.848 3.408-13.143 6.181z" fill="url(#T)"/></g><g class="B C D E"><path d="M204.235 385.972l13.141-6.183 6.846 3.406-13.144 6.182z"/><path d="M217.376 379.789v-1.616"/></g><g clip-path="url(#U)"><path d="M204.236 387.735v-1.696l13.138-6.185 6.848 3.404v1.701l-13.143 6.182z" fill="url(#V)"/></g><g class="B C D E"><path d="M204.235 387.737l6.843 3.404 13.144-6.182v-1.701l-6.846-3.404-13.141 6.184z"/><path d="M204.235 387.737l13.141-6.184 6.846 3.406-13.144 6.182z"/><path d="M217.376 381.552v-1.616"/></g></g></svg>