<svg xmlns="http://www.w3.org/2000/svg" xmlns:xlink="http://www.w3.org/1999/xlink" width='100%' height='100%' viewBox='0 0 32.325 26.58' xmlns:v="https://vecta.io/nano"><style><![CDATA[.B{fill:none}.C{stroke:#696b6d}.D{stroke-width:.23}.E{stroke-linejoin:round}.F{fill:#fff}]]></style><defs><clipPath id="A"><path d="M373.154 645.892c0-.119-.512-8.623-.512-8.903h0c0-.442.719-.802 1.606-.802h0c.886 0 1.606.36 1.606.802h0c0 .28-.513 8.784-.513 8.903h0c0 .303-.489.547-1.093.547h0c-.605 0-1.094-.244-1.094-.547"/></clipPath><linearGradient x1="373.058" y1="641.313" x2="375.853" y2="641.313" spreadMethod="pad" id="B" xlink:href="#d"><stop offset="0" stop-color="#c7c8ca"/><stop offset=".129" stop-color="#c7c8ca"/><stop offset=".522" stop-color="#fff"/><stop offset=".663" stop-color="#fff"/><stop offset=".86" stop-color="#c7c8ca"/><stop offset="1" stop-color="#fff"/></linearGradient><clipPath id="C"><path d="M369.608 644.044c0-.12-.512-8.623-.512-8.903h0c0-.443.719-.805 1.607-.805h0c.884 0 1.604.362 1.604.805h0c0 .28-.512 8.783-.512 8.903h0c0 .3-.488.546-1.092.546h0c-.604 0-1.095-.246-1.095-.546"/></clipPath><linearGradient x1="369.514" y1="639.463" x2="372.31" y2="639.463" spreadMethod="pad" id="D" xlink:href="#d"><stop offset="0" stop-color="#c7c8ca"/><stop offset=".129" stop-color="#c7c8ca"/><stop offset=".522" stop-color="#fff"/><stop offset=".663" stop-color="#fff"/><stop offset=".86" stop-color="#c7c8ca"/><stop offset="1" stop-color="#fff"/></linearGradient><clipPath id="E"><path d="M379.556 640.859c-.32-.129-8.773-4.402-9.048-4.492h0c-.351-.116-.573-.44-.573-.931h0l-.004-2.073h0v-.001l3.173-1.586 9.098 4.561-.005 2.028h0c0 .872-.709 1.935-1.582 2.37h0c-.254.129-.495.187-.707.187h0c-.129 0-.247-.02-.352-.063"/></clipPath><linearGradient x1="375.261" y1="638" x2="377.299" y2="633.822" spreadMethod="pad" id="F" xlink:href="#d"><stop offset="0" stop-color="#c7c8ca"/><stop offset=".129" stop-color="#c7c8ca"/><stop offset=".522" stop-color="#fff"/><stop offset=".663" stop-color="#fff"/><stop offset=".86" stop-color="#c7c8ca"/><stop offset="1" stop-color="#fff"/></linearGradient><clipPath id="G"><path d="M383.115 639.078c-.322-.127-8.773-4.402-9.045-4.492h0c-.352-.113-.574-.441-.574-.93h0l-.008-2.071h0v-.001l3.176-1.588 9.099 4.561-.006 2.026h0c0 .874-.709 1.935-1.581 2.374h0c-.255.127-.495.187-.709.187h0c-.127 0-.246-.022-.352-.066"/></clipPath><linearGradient x1="378.82" y1="636.222" x2="380.858" y2="632.044" spreadMethod="pad" id="H" xlink:href="#d"><stop offset="0" stop-color="#c7c8ca"/><stop offset=".129" stop-color="#c7c8ca"/><stop offset=".522" stop-color="#fff"/><stop offset=".663" stop-color="#fff"/><stop offset=".86" stop-color="#c7c8ca"/><stop offset="1" stop-color="#fff"/></linearGradient><clipPath id="I"><path d="M378.445 633.907l1.572-3.191 9.487 4.761-1.571 3.188z"/></clipPath><linearGradient x1="383.378" y1="635.917" x2="384.78" y2="633.042" spreadMethod="pad" id="J" xlink:href="#d"><stop offset="0" stop-color="#c7c8ca"/><stop offset=".129" stop-color="#c7c8ca"/><stop offset=".522" stop-color="#fff"/><stop offset=".663" stop-color="#fff"/><stop offset=".86" stop-color="#c7c8ca"/><stop offset="1" stop-color="#fff"/></linearGradient><clipPath id="K"><path d="M385.91 638.766v-.814c0-.22.357-.398.798-.398h0c.44 0 .798.178.798.398h0v.814c0 .221-.358.399-.798.399h0c-.441 0-.798-.178-.798-.399"/></clipPath><linearGradient x1="385.92" y1="638.359" x2="387.507" y2="638.359" spreadMethod="pad" id="L" xlink:href="#d"><stop offset="0" stop-color="#fff"/><stop offset=".006" stop-color="#fff"/><stop offset=".129" stop-color="#c7c8ca"/><stop offset=".522" stop-color="#fff"/><stop offset=".663" stop-color="#fff"/><stop offset=".86" stop-color="#c7c8ca"/><stop offset="1" stop-color="#fff"/></linearGradient><clipPath id="M"><path d="M384.535 638.11v-.815c0-.219.359-.398.797-.398h0c.441 0 .799.179.799.398h0v.815c0 .22-.358.399-.799.399h0c-.438 0-.797-.179-.797-.399"/></clipPath><linearGradient x1="384.545" y1="637.702" x2="386.132" y2="637.702" spreadMethod="pad" id="N" xlink:href="#d"><stop offset="0" stop-color="#fff"/><stop offset=".006" stop-color="#fff"/><stop offset=".129" stop-color="#c7c8ca"/><stop offset=".522" stop-color="#fff"/><stop offset=".663" stop-color="#fff"/><stop offset=".86" stop-color="#c7c8ca"/><stop offset="1" stop-color="#fff"/></linearGradient><clipPath id="O"><path d="M383.136 637.474v-.813c0-.221.359-.4.8-.4h0c.44 0 .797.179.797.4h0v.813c0 .221-.357.398-.797.398h0c-.441 0-.8-.177-.8-.398"/></clipPath><linearGradient x1="383.147" y1="637.067" x2="384.733" y2="637.067" spreadMethod="pad" id="P" xlink:href="#d"><stop offset="0" stop-color="#fff"/><stop offset=".006" stop-color="#fff"/><stop offset=".129" stop-color="#c7c8ca"/><stop offset=".522" stop-color="#fff"/><stop offset=".663" stop-color="#fff"/><stop offset=".86" stop-color="#c7c8ca"/><stop offset="1" stop-color="#fff"/></linearGradient><clipPath id="Q"><path d="M381.82 636.793v-.812c0-.22.36-.398.801-.398h0c.44 0 .796.178.796.398h0v.812c0 .222-.356.401-.796.401h0c-.441 0-.801-.179-.801-.401"/></clipPath><linearGradient x1="381.83" y1="636.388" x2="383.417" y2="636.388" spreadMethod="pad" id="R" xlink:href="#d"><stop offset="0" stop-color="#fff"/><stop offset=".006" stop-color="#fff"/><stop offset=".129" stop-color="#c7c8ca"/><stop offset=".522" stop-color="#fff"/><stop offset=".663" stop-color="#fff"/><stop offset=".86" stop-color="#c7c8ca"/><stop offset="1" stop-color="#fff"/></linearGradient><clipPath id="S"><path d="M380.476 636.097v-.813c0-.222.356-.401.796-.401h0c.442 0 .801.179.801.401h0v.813c0 .219-.359.397-.801.397h0c-.44 0-.796-.178-.796-.397"/></clipPath><linearGradient x1="380.485" y1="635.69" x2="382.072" y2="635.69" spreadMethod="pad" id="T" xlink:href="#d"><stop offset="0" stop-color="#fff"/><stop offset=".006" stop-color="#fff"/><stop offset=".129" stop-color="#c7c8ca"/><stop offset=".522" stop-color="#fff"/><stop offset=".663" stop-color="#fff"/><stop offset=".86" stop-color="#c7c8ca"/><stop offset="1" stop-color="#fff"/></linearGradient><clipPath id="U"><path d="M379.12 635.419v-.814c0-.219.357-.397.797-.397h0c.441 0 .797.178.797.397h0v.814c0 .22-.356.4-.797.4h0c-.44 0-.797-.18-.797-.4"/></clipPath><linearGradient x1="379.129" y1="635.013" x2="380.715" y2="635.013" spreadMethod="pad" id="V" xlink:href="#d"><stop offset="0" stop-color="#fff"/><stop offset=".006" stop-color="#fff"/><stop offset=".129" stop-color="#c7c8ca"/><stop offset=".522" stop-color="#fff"/><stop offset=".663" stop-color="#fff"/><stop offset=".86" stop-color="#c7c8ca"/><stop offset="1" stop-color="#fff"/></linearGradient><clipPath id="W"><path d="M384.393 632.449v-2.014l1.311-.656 1.311.656v2.014l-1.311.654z"/></clipPath><linearGradient x1="384.731" y1="631.441" x2="387.016" y2="631.441" spreadMethod="pad" id="X" xlink:href="#d"><stop offset="0" stop-color="#c7c8ca"/><stop offset=".129" stop-color="#c7c8ca"/><stop offset=".522" stop-color="#fff"/><stop offset=".663" stop-color="#fff"/><stop offset=".86" stop-color="#c7c8ca"/><stop offset="1" stop-color="#fff"/></linearGradient><clipPath id="Y"><path d="M382.262 631.374v-2.012l1.311-.656 1.311.656v2.012l-1.311.656z"/></clipPath><linearGradient x1="382.601" y1="630.368" x2="384.885" y2="630.368" spreadMethod="pad" id="Z" xlink:href="#d"><stop offset="0" stop-color="#c7c8ca"/><stop offset=".129" stop-color="#c7c8ca"/><stop offset=".522" stop-color="#fff"/><stop offset=".663" stop-color="#fff"/><stop offset=".86" stop-color="#c7c8ca"/><stop offset="1" stop-color="#fff"/></linearGradient><path id="a" d="M387.916 630.732c0-1.328-2.153-2.405-4.809-2.405s-4.809 1.077-4.809 2.405 2.153 2.404 4.809 2.404 4.809-1.076 4.809-2.404"/><path id="b" d="M375.442 646.035c0 .33-.534.597-1.194.597s-1.194-.267-1.194-.597v-.369c0-.33.535-.596 1.194-.596s1.194.266 1.194.596z"/><path id="c" d="M371.896 644.185c0 .33-.534.597-1.194.597s-1.194-.267-1.194-.597v-.368c0-.33.534-.597 1.194-.597s1.194.267 1.194.597z"/><linearGradient id="d" gradientUnits="userSpaceOnUse"/></defs><g transform="matrix(1.333333 0 0 -1.333333 -487.98133 862.84267)"><g fill="#939598"><use xlink:href="#a"/><path d="M390.23 633.018c0-1.328-2.152-2.406-4.808-2.406s-4.81 1.078-4.81 2.406 2.152 2.405 4.81 2.405 4.808-1.077 4.808-2.405m-10.659-1.433c0-1.328-2.153-2.404-4.809-2.404s-4.81 1.076-4.81 2.404 2.154 2.405 4.81 2.405 4.809-1.076 4.809-2.405"/><path d="M384.529 629.602c0-1.328-2.154-2.405-4.809-2.405s-4.809 1.077-4.809 2.405 2.153 2.405 4.809 2.405 4.809-1.077 4.809-2.405m-8.924 4.131c0-1.328-2.154-2.404-4.81-2.404s-4.809 1.076-4.809 2.404 2.153 2.405 4.809 2.405 4.81-1.077 4.81-2.405"/><use xlink:href="#a" x="-8.015" y="5.04"/></g><g clip-path="url(#A)"><path d="M373.154 645.892c0-.119-.512-8.623-.512-8.903h0c0-.442.719-.802 1.606-.802h0c.886 0 1.606.36 1.606.802h0c0 .28-.513 8.784-.513 8.903h0c0 .303-.489.547-1.093.547h0c-.605 0-1.094-.244-1.094-.547" fill="url(#B)"/></g><path d="M372.643 636.99c0-.443.718-.802 1.605-.802s1.605.359 1.605.802c0 .279-.511 8.783-.511 8.903 0 .302-.489.547-1.094.547s-1.094-.245-1.094-.547c0-.12-.511-8.624-.511-8.903z" class="B C D E"/><use xlink:href="#b" class="F"/><use xlink:href="#b" class="B C D E"/><path d="M375.211 645.999c0-.267-.431-.482-.964-.482s-.964.215-.964.482.432.482.964.482.964-.216.964-.482" class="F"/><path d="M375.211 645.999c0-.267-.431-.482-.964-.482s-.964.215-.964.482.432.482.964.482.964-.216.964-.482z" class="B C D E"/><g clip-path="url(#C)"><path d="M369.608 644.044c0-.12-.512-8.623-.512-8.903h0c0-.443.719-.805 1.607-.805h0c.884 0 1.604.362 1.604.805h0c0 .28-.512 8.783-.512 8.903h0c0 .3-.488.546-1.092.546h0c-.604 0-1.095-.246-1.095-.546" fill="url(#D)"/></g><path d="M369.097 635.141c0-.444.718-.803 1.605-.803s1.606.359 1.606.803c0 .279-.512 8.783-.512 8.903 0 .301-.489.547-1.094.547s-1.093-.246-1.093-.547c0-.12-.512-8.624-.512-8.903z" class="B C D E"/><use xlink:href="#c" class="F"/><use xlink:href="#c" class="B C D E"/><path d="M371.666 644.15c0-.266-.431-.483-.963-.483s-.964.217-.964.483.431.481.964.481.963-.215.963-.481" class="F"/><path d="M371.666 644.15c0-.266-.431-.483-.963-.483s-.964.217-.964.483.431.481.964.481.963-.215.963-.481z" class="B C D E"/><g clip-path="url(#E)"><path d="M379.556 640.859c-.32-.129-8.773-4.402-9.048-4.492h0c-.351-.116-.573-.44-.573-.931h0l-.004-2.073h0v-.001l3.173-1.586 9.098 4.561-.005 2.028h0c0 .872-.709 1.935-1.582 2.37h0c-.254.129-.495.187-.707.187h0c-.129 0-.247-.02-.352-.063" fill="url(#F)"/></g><path d="M382.202 636.336l-.005 2.028c0 .873-.709 1.935-1.582 2.372-.408.204-.779.236-1.06.123-.32-.129-8.773-4.403-9.046-4.492-.351-.115-.574-.442-.574-.932l-.004-2.072 3.173-1.587z" class="B C D E"/><path d="M369.935 635.435c0 .874.709 1.227 1.582.791s1.582-1.5 1.582-2.373l.005-2.077-3.173 1.587.004 2.072" class="F"/><path d="M369.935 635.435c0 .874.709 1.227 1.582.791s1.582-1.5 1.582-2.373l.005-2.077-3.173 1.587.004 2.072z" class="B C D E"/><g clip-path="url(#G)"><path d="M383.115 639.078c-.322-.127-8.773-4.402-9.045-4.492h0c-.352-.113-.574-.441-.574-.93h0l-.008-2.071h0v-.001l3.176-1.588 9.099 4.561-.006 2.026h0c0 .874-.709 1.935-1.581 2.374h0c-.255.127-.495.187-.709.187h0c-.127 0-.246-.022-.352-.066" fill="url(#H)"/></g><path d="M385.762 634.557l-.005 2.028c0 .872-.709 1.935-1.582 2.372-.408.204-.779.236-1.06.123-.321-.129-8.772-4.403-9.046-4.492-.351-.115-.574-.442-.574-.932l-.006-2.072 3.175-1.587z" class="B C D E"/><path d="M373.495 633.656c0 .874.708 1.228 1.582.789s1.581-1.497 1.581-2.371l.006-2.077-3.175 1.588.006 2.071" class="F"/><path d="M373.495 633.656c0 .874.708 1.228 1.582.789s1.581-1.497 1.581-2.371l.006-2.077-3.175 1.588.006 2.071z" class="B C D E"/><path d="M389.285 635.427l-3.055 1.529-9.169-4.584v-2.542l3.056-1.529 9.168 4.584z" class="F"/><path d="M389.285 635.427l-3.055 1.529-9.169-4.584v-2.542l3.056-1.529 9.168 4.584z" class="B C D E"/><path d="M389.285 635.427l-9.168-4.583-3.056 1.528 9.169 4.584z" class="F"/><g class="B C D E"><path d="M389.285 635.427l-9.168-4.583-3.056 1.528 9.169 4.584z"/><path d="M380.117 630.844v-2.543"/></g><path d="M378.446 633.906l-1.587-1.612 3.158-1.577z" class="F"/><path d="M378.446 633.906l-1.587-1.612 3.158-1.577z" class="B C D E"/><g clip-path="url(#I)"><path d="M378.445 633.907l1.572-3.191 9.487 4.761-1.571 3.188z" fill="url(#J)"/></g><path d="M378.446 633.906l9.488 4.76 1.57-3.19-9.487-4.759z" class="B C D E"/><g clip-path="url(#K)"><path d="M385.91 638.766v-.814c0-.22.357-.398.798-.398h0c.44 0 .798.178.798.398h0v.814c0 .221-.358.399-.798.399h0c-.441 0-.798-.178-.798-.399" fill="url(#L)"/></g><path d="M387.506 638.766c0 .221-.357.399-.799.399s-.797-.178-.797-.399v-.813c0-.22.358-.4.797-.4s.799.18.799.4z" class="B C D E"/><path d="M387.506 638.766c0-.22-.357-.399-.799-.399s-.797.179-.797.399.358.399.797.399.799-.178.799-.399" class="F"/><path d="M387.506 638.766c0-.22-.357-.399-.799-.399s-.797.179-.797.399.358.399.797.399.799-.178.799-.399z" class="B C D E"/><g clip-path="url(#M)"><path d="M384.535 638.11v-.815c0-.219.359-.398.797-.398h0c.441 0 .799.179.799.398h0v.815c0 .22-.358.399-.799.399h0c-.438 0-.797-.179-.797-.399" fill="url(#N)"/></g><path d="M386.131 638.11c0 .22-.357.399-.798.399s-.798-.179-.798-.399v-.813c0-.221.358-.4.798-.4s.798.179.798.4z" class="B C D E"/><path d="M386.131 638.11c0-.22-.357-.399-.798-.399s-.798.179-.798.399.358.399.798.399.798-.179.798-.399" class="F"/><path d="M386.131 638.11c0-.22-.357-.399-.798-.399s-.798.179-.798.399.358.399.798.399.798-.179.798-.399z" class="B C D E"/><g clip-path="url(#O)"><path d="M383.136 637.474v-.813c0-.221.359-.4.8-.4h0c.44 0 .797.179.797.4h0v.813c0 .221-.357.398-.797.398h0c-.441 0-.8-.177-.8-.398" fill="url(#P)"/></g><path d="M384.733 637.474c0 .221-.357.399-.797.399s-.799-.178-.799-.399v-.813c0-.221.358-.4.799-.4s.797.179.797.4z" class="B C D E"/><path d="M384.733 637.474c0-.221-.357-.399-.797-.399s-.799.178-.799.399.358.399.799.399.797-.178.797-.399" class="F"/><path d="M384.733 637.474c0-.221-.357-.399-.797-.399s-.799.178-.799.399.358.399.799.399.797-.178.797-.399z" class="B C D E"/><g clip-path="url(#Q)"><path d="M381.82 636.793v-.812c0-.22.36-.398.801-.398h0c.44 0 .796.178.796.398h0v.812c0 .222-.356.401-.796.401h0c-.441 0-.801-.179-.801-.401" fill="url(#R)"/></g><path d="M383.417 636.794c0 .22-.356.399-.797.399s-.799-.179-.799-.399v-.814c0-.22.358-.399.799-.399s.797.179.797.399z" class="B C D E"/><path d="M383.417 636.794c0-.221-.356-.398-.797-.398s-.799.177-.799.398.358.399.799.399.797-.179.797-.399" class="F"/><path d="M383.417 636.794c0-.221-.356-.398-.797-.398s-.799.177-.799.398.358.399.799.399.797-.179.797-.399z" class="B C D E"/><g clip-path="url(#S)"><path d="M380.476 636.097v-.813c0-.222.356-.401.796-.401h0c.442 0 .801.179.801.401h0v.813c0 .219-.359.397-.801.397h0c-.44 0-.796-.178-.796-.397" fill="url(#T)"/></g><path d="M382.072 636.097c0 .22-.358.398-.798.398s-.798-.178-.798-.398v-.813c0-.221.357-.4.798-.4s.798.179.798.4z" class="B C D E"/><path d="M382.072 636.097c0-.221-.358-.399-.798-.399s-.798.178-.798.399.357.398.798.398.798-.178.798-.398" class="F"/><path d="M382.072 636.097c0-.221-.358-.399-.798-.399s-.798.178-.798.399.357.398.798.398.798-.178.798-.398z" class="B C D E"/><g clip-path="url(#U)"><path d="M379.12 635.419v-.814c0-.219.357-.397.797-.397h0c.441 0 .797.178.797.397h0v.814c0 .22-.356.4-.797.4h0c-.44 0-.797-.18-.797-.4" fill="url(#V)"/></g><path d="M380.715 635.419c0 .221-.357.399-.798.399s-.798-.178-.798-.399v-.813c0-.22.358-.399.798-.399s.798.179.798.399z" class="B C D E"/><path d="M380.715 635.419c0-.22-.357-.399-.798-.399s-.798.179-.798.399.358.399.798.399.798-.178.798-.399" class="F"/><path d="M380.715 635.419c0-.22-.357-.399-.798-.399s-.798.179-.798.399.358.399.798.399.798-.178.798-.399z" class="B C D E"/><g clip-path="url(#W)"><path d="M384.393 632.449v-2.014l1.311-.656 1.311.656v2.014l-1.311.654z" fill="url(#X)"/></g><path d="M387.016 632.449l-1.312.656-1.311-.656v-2.014l1.311-.656 1.312.656z" class="B C D E"/><path d="M387.016 632.449l-1.312-.656-1.311.656 1.311.656z" class="F"/><g class="B C D E"><path d="M387.016 632.449l-1.312-.656-1.311.656 1.311.656z"/><path d="M385.704 631.793v-1.995"/></g><g clip-path="url(#Y)"><path d="M382.262 631.374v-2.012l1.311-.656 1.311.656v2.012l-1.311.656z" fill="url(#Z)"/></g><path d="M384.884 631.375l-1.311.656-1.312-.656v-2.014l1.312-.655 1.311.655z" class="B C D E"/><path d="M384.884 631.375l-1.311-.656-1.312.656 1.312.656z" class="F"/><g class="B C D E"><path d="M384.884 631.375l-1.311-.656-1.312.656 1.312.656z"/><path d="M383.573 630.719v-1.994"/></g></g></svg>